G75*
%MOIN*%
%OFA0B0*%
%FSLAX24Y24*%
%IPPOS*%
%LPD*%
%AMOC8*
5,1,8,0,0,1.08239X$1,22.5*
%
%ADD10C,0.0867*%
%ADD11R,0.0680X0.0320*%
%ADD12R,0.0300X0.0580*%
%ADD13R,0.0580X0.0300*%
%ADD14C,0.0820*%
%ADD15R,0.0710X0.0789*%
%ADD16R,0.0380X0.0680*%
%ADD17R,0.0820X0.0820*%
%ADD18OC8,0.0820*%
%ADD19R,0.0789X0.0710*%
%ADD20R,0.0631X0.0552*%
%ADD21R,0.0552X0.0395*%
%ADD22R,0.0560X0.0960*%
%ADD23R,0.1497X0.0946*%
%ADD24R,0.0710X0.0631*%
%ADD25R,0.0356X0.0749*%
%ADD26OC8,0.0600*%
D10*
X001753Y001600D03*
X001753Y012600D03*
X020503Y012600D03*
X020503Y001600D03*
D11*
X019333Y003350D03*
X019333Y003850D03*
X019333Y004350D03*
X019333Y004850D03*
X019333Y006100D03*
X019333Y006600D03*
X019333Y007100D03*
X019333Y007600D03*
X019333Y008850D03*
X019333Y009350D03*
X019333Y009850D03*
X019333Y010350D03*
X017173Y010350D03*
X017173Y009850D03*
X017173Y009350D03*
X017173Y008850D03*
X017173Y007600D03*
X017173Y007100D03*
X017173Y006600D03*
X017173Y006100D03*
X017173Y004850D03*
X017173Y004350D03*
X017173Y003850D03*
X017173Y003350D03*
D12*
X010606Y005160D03*
X010291Y005160D03*
X009976Y005160D03*
X009661Y005160D03*
X009346Y005160D03*
X009031Y005160D03*
X008716Y005160D03*
X008401Y005160D03*
X008401Y008540D03*
X008716Y008540D03*
X009031Y008540D03*
X009346Y008540D03*
X009661Y008540D03*
X009976Y008540D03*
X010291Y008540D03*
X010606Y008540D03*
D13*
X011193Y007952D03*
X011193Y007637D03*
X011193Y007322D03*
X011193Y007007D03*
X011193Y006693D03*
X011193Y006378D03*
X011193Y006063D03*
X011193Y005748D03*
X007813Y005748D03*
X007813Y006063D03*
X007813Y006378D03*
X007813Y006693D03*
X007813Y007007D03*
X007813Y007322D03*
X007813Y007637D03*
X007813Y007952D03*
D14*
X001503Y006850D03*
X001503Y005850D03*
X001503Y004850D03*
X003753Y012350D03*
X004753Y012350D03*
X005753Y012350D03*
X020753Y010100D03*
X020753Y009100D03*
X020753Y007350D03*
X020753Y006350D03*
X020753Y004600D03*
X020753Y003600D03*
D15*
X006804Y006350D03*
X005702Y006350D03*
X004804Y006350D03*
X003702Y006350D03*
D16*
X004753Y008100D03*
X006253Y008100D03*
X006253Y010100D03*
X004753Y010100D03*
D17*
X013003Y012100D03*
X001503Y003850D03*
D18*
X011003Y011100D03*
X012003Y011100D03*
X013003Y011100D03*
X012003Y012100D03*
X011003Y012100D03*
D19*
X008753Y010901D03*
X008753Y009799D03*
X015003Y010151D03*
X016253Y010151D03*
X016253Y009049D03*
X015003Y009049D03*
X015003Y007401D03*
X016253Y007401D03*
X016253Y006299D03*
X015003Y006299D03*
X015003Y004651D03*
X016253Y004651D03*
X016253Y003549D03*
X015003Y003549D03*
D20*
X013003Y003441D03*
X012003Y003441D03*
X012003Y002259D03*
X013003Y002259D03*
X003503Y007509D03*
X003503Y008691D03*
D21*
X012003Y004954D03*
X012003Y004246D03*
X013003Y004496D03*
X013003Y005204D03*
D22*
X005163Y004570D03*
X004253Y004570D03*
X003343Y004570D03*
D23*
X004253Y002130D03*
D24*
X002503Y007549D03*
X002503Y008651D03*
X007753Y009799D03*
X007753Y010901D03*
D25*
X010031Y003600D03*
X010503Y003600D03*
X010976Y003600D03*
D26*
X012753Y006100D03*
X012503Y007850D03*
X012503Y008600D03*
X011753Y009600D03*
X009753Y010100D03*
X009753Y012100D03*
X005753Y007600D03*
X007003Y005600D03*
X007003Y003850D03*
M02*
