G75*
%MOIN*%
%OFA0B0*%
%FSLAX24Y24*%
%IPPOS*%
%LPD*%
%AMOC8*
5,1,8,0,0,1.08239X$1,22.5*
%
%ADD10C,0.0060*%
%ADD11C,0.0070*%
%ADD12C,0.0040*%
%ADD13C,0.0010*%
D10*
X007283Y005395D02*
X007283Y008295D01*
X011733Y008295D01*
X011733Y005395D01*
X007283Y005395D01*
X011133Y005755D02*
X011135Y005784D01*
X011141Y005812D01*
X011150Y005839D01*
X011164Y005864D01*
X011180Y005888D01*
X011200Y005908D01*
X011222Y005927D01*
X011246Y005941D01*
X011273Y005953D01*
X011300Y005961D01*
X011329Y005965D01*
X011357Y005965D01*
X011386Y005961D01*
X011413Y005953D01*
X011440Y005941D01*
X011464Y005927D01*
X011486Y005908D01*
X011506Y005888D01*
X011522Y005864D01*
X011536Y005839D01*
X011545Y005812D01*
X011551Y005784D01*
X011553Y005755D01*
X011551Y005726D01*
X011545Y005698D01*
X011536Y005671D01*
X011522Y005646D01*
X011506Y005622D01*
X011486Y005602D01*
X011464Y005583D01*
X011440Y005569D01*
X011413Y005557D01*
X011386Y005549D01*
X011357Y005545D01*
X011329Y005545D01*
X011300Y005549D01*
X011273Y005557D01*
X011246Y005569D01*
X011222Y005583D01*
X011200Y005602D01*
X011180Y005622D01*
X011164Y005646D01*
X011150Y005671D01*
X011141Y005698D01*
X011135Y005726D01*
X011133Y005755D01*
D11*
X011923Y005700D02*
X011923Y005490D01*
X012028Y005385D01*
X012554Y005385D01*
X012554Y005805D02*
X012028Y005805D01*
X011923Y005700D01*
X011923Y006030D02*
X012344Y006450D01*
X012449Y006450D01*
X012554Y006345D01*
X012554Y006135D01*
X012449Y006030D01*
X011923Y006030D02*
X011923Y006450D01*
D12*
X005483Y005880D02*
X005483Y005497D01*
X005406Y005420D01*
X005253Y005420D01*
X005176Y005497D01*
X005176Y005880D01*
X005023Y005804D02*
X004946Y005880D01*
X004793Y005880D01*
X004716Y005804D01*
X004716Y005727D01*
X004793Y005650D01*
X004716Y005573D01*
X004716Y005497D01*
X004793Y005420D01*
X004946Y005420D01*
X005023Y005497D01*
X004869Y005650D02*
X004793Y005650D01*
D13*
X003358Y003855D02*
X003208Y003855D01*
X003258Y003855D02*
X003258Y003930D01*
X003283Y003955D01*
X003333Y003955D01*
X003358Y003930D01*
X003358Y003855D01*
X003258Y003905D02*
X003208Y003955D01*
X003233Y004002D02*
X003208Y004027D01*
X003208Y004077D01*
X003233Y004102D01*
X003333Y004102D01*
X003358Y004077D01*
X003358Y004027D01*
X003333Y004002D01*
X003308Y004002D01*
X003283Y004027D01*
X003283Y004102D01*
X003043Y005495D02*
X003043Y005645D01*
X002968Y005645D01*
X002943Y005620D01*
X002943Y005570D01*
X002968Y005545D01*
X003043Y005545D01*
X002993Y005545D02*
X002943Y005495D01*
X002896Y005520D02*
X002871Y005495D01*
X002820Y005495D01*
X002795Y005520D01*
X002795Y005570D01*
X002820Y005595D01*
X002845Y005595D01*
X002896Y005570D01*
X002896Y005645D01*
X002795Y005645D01*
M02*
