G75*
%MOIN*%
%OFA0B0*%
%FSLAX24Y24*%
%IPPOS*%
%LPD*%
%AMOC8*
5,1,8,0,0,1.08239X$1,22.5*
%
%ADD10C,0.0050*%
%ADD11C,0.0020*%
%ADD12C,0.0040*%
%ADD13C,0.0060*%
%ADD14C,0.0030*%
%ADD15C,0.0080*%
%ADD16C,0.0010*%
D10*
X000683Y003345D02*
X000758Y003420D01*
X000758Y003495D01*
X000683Y003570D01*
X000308Y003570D01*
X000308Y003495D02*
X000308Y003645D01*
X000308Y003805D02*
X000308Y004031D01*
X000383Y004106D01*
X000533Y004106D01*
X000608Y004031D01*
X000608Y003805D01*
X000758Y003805D02*
X000308Y003805D01*
X000533Y004266D02*
X000533Y004566D01*
X000308Y004491D02*
X000533Y004266D01*
X000758Y004491D02*
X000308Y004491D01*
X002103Y007950D02*
X002903Y007950D01*
X007353Y010200D02*
X008153Y010200D01*
X012607Y009950D02*
X012682Y009875D01*
X012758Y009875D01*
X012833Y009950D01*
X012833Y010325D01*
X012758Y010325D02*
X012908Y010325D01*
X013068Y010175D02*
X013218Y010325D01*
X013218Y009875D01*
X013068Y009875D02*
X013368Y009875D01*
X017478Y010775D02*
X017553Y010700D01*
X017703Y010700D01*
X017778Y010775D01*
X017778Y011075D01*
X017703Y011150D01*
X017553Y011150D01*
X017478Y011075D01*
X017478Y010775D01*
X017628Y010850D02*
X017778Y010700D01*
X017939Y010700D02*
X018239Y010700D01*
X018089Y010700D02*
X018089Y011150D01*
X017939Y011000D01*
X017543Y010530D02*
X018963Y010530D01*
X018963Y008670D01*
X017543Y008670D01*
X017543Y010530D01*
X017553Y008400D02*
X017703Y008400D01*
X017778Y008325D01*
X017778Y008025D01*
X017703Y007950D01*
X017553Y007950D01*
X017478Y008025D01*
X017478Y008325D01*
X017553Y008400D01*
X017628Y008100D02*
X017778Y007950D01*
X017939Y007950D02*
X018239Y008250D01*
X018239Y008325D01*
X018164Y008400D01*
X018014Y008400D01*
X017939Y008325D01*
X017939Y007950D02*
X018239Y007950D01*
X017543Y007780D02*
X018963Y007780D01*
X018963Y005920D01*
X017543Y005920D01*
X017543Y007780D01*
X017553Y005650D02*
X017703Y005650D01*
X017778Y005575D01*
X017778Y005275D01*
X017703Y005200D01*
X017553Y005200D01*
X017478Y005275D01*
X017478Y005575D01*
X017553Y005650D01*
X017628Y005350D02*
X017778Y005200D01*
X017939Y005275D02*
X018014Y005200D01*
X018164Y005200D01*
X018239Y005275D01*
X018239Y005350D01*
X018164Y005425D01*
X018089Y005425D01*
X018164Y005425D02*
X018239Y005500D01*
X018239Y005575D01*
X018164Y005650D01*
X018014Y005650D01*
X017939Y005575D01*
X017543Y005030D02*
X018963Y005030D01*
X018963Y003170D01*
X017543Y003170D01*
X017543Y005030D01*
X021498Y004920D02*
X021498Y004770D01*
X021573Y004695D01*
X021498Y004920D02*
X021573Y004995D01*
X021648Y004995D01*
X021948Y004695D01*
X021948Y004995D01*
X021723Y004534D02*
X021798Y004459D01*
X021798Y004234D01*
X021948Y004234D02*
X021498Y004234D01*
X021498Y004459D01*
X021573Y004534D01*
X021723Y004534D01*
X021498Y004074D02*
X021498Y003924D01*
X021498Y003999D02*
X021873Y003999D01*
X021948Y003924D01*
X021948Y003849D01*
X021873Y003774D01*
X021873Y006524D02*
X021948Y006599D01*
X021948Y006674D01*
X021873Y006749D01*
X021498Y006749D01*
X021498Y006674D02*
X021498Y006824D01*
X021498Y006984D02*
X021498Y007209D01*
X021573Y007284D01*
X021723Y007284D01*
X021798Y007209D01*
X021798Y006984D01*
X021948Y006984D02*
X021498Y006984D01*
X021573Y007445D02*
X021498Y007520D01*
X021498Y007670D01*
X021573Y007745D01*
X021648Y007745D01*
X021723Y007670D01*
X021798Y007745D01*
X021873Y007745D01*
X021948Y007670D01*
X021948Y007520D01*
X021873Y007445D01*
X021723Y007595D02*
X021723Y007670D01*
X021873Y009274D02*
X021948Y009349D01*
X021948Y009424D01*
X021873Y009499D01*
X021498Y009499D01*
X021498Y009424D02*
X021498Y009574D01*
X021498Y009734D02*
X021498Y009959D01*
X021573Y010034D01*
X021723Y010034D01*
X021798Y009959D01*
X021798Y009734D01*
X021948Y009734D02*
X021498Y009734D01*
X021648Y010195D02*
X021498Y010345D01*
X021948Y010345D01*
X021948Y010195D02*
X021948Y010495D01*
X004469Y013170D02*
X004394Y013095D01*
X004244Y013095D01*
X004169Y013170D01*
X004169Y013320D02*
X004319Y013395D01*
X004394Y013395D01*
X004469Y013320D01*
X004469Y013170D01*
X004169Y013320D02*
X004169Y013545D01*
X004469Y013545D01*
X004009Y013470D02*
X004009Y013320D01*
X003934Y013245D01*
X003709Y013245D01*
X003709Y013095D02*
X003709Y013545D01*
X003934Y013545D01*
X004009Y013470D01*
X003548Y013545D02*
X003398Y013545D01*
X003473Y013545D02*
X003473Y013170D01*
X003398Y013095D01*
X003323Y013095D01*
X003248Y013170D01*
D11*
X017623Y010310D02*
X017625Y010333D01*
X017631Y010355D01*
X017640Y010377D01*
X017653Y010396D01*
X017668Y010413D01*
X017686Y010427D01*
X017707Y010438D01*
X017729Y010446D01*
X017751Y010450D01*
X017775Y010450D01*
X017797Y010446D01*
X017819Y010438D01*
X017840Y010427D01*
X017858Y010413D01*
X017873Y010396D01*
X017886Y010377D01*
X017895Y010355D01*
X017901Y010333D01*
X017903Y010310D01*
X017901Y010287D01*
X017895Y010265D01*
X017886Y010243D01*
X017873Y010224D01*
X017858Y010207D01*
X017840Y010193D01*
X017819Y010182D01*
X017797Y010174D01*
X017775Y010170D01*
X017751Y010170D01*
X017729Y010174D01*
X017707Y010182D01*
X017686Y010193D01*
X017668Y010207D01*
X017653Y010224D01*
X017640Y010243D01*
X017631Y010265D01*
X017625Y010287D01*
X017623Y010310D01*
X017623Y007560D02*
X017625Y007583D01*
X017631Y007605D01*
X017640Y007627D01*
X017653Y007646D01*
X017668Y007663D01*
X017686Y007677D01*
X017707Y007688D01*
X017729Y007696D01*
X017751Y007700D01*
X017775Y007700D01*
X017797Y007696D01*
X017819Y007688D01*
X017840Y007677D01*
X017858Y007663D01*
X017873Y007646D01*
X017886Y007627D01*
X017895Y007605D01*
X017901Y007583D01*
X017903Y007560D01*
X017901Y007537D01*
X017895Y007515D01*
X017886Y007493D01*
X017873Y007474D01*
X017858Y007457D01*
X017840Y007443D01*
X017819Y007432D01*
X017797Y007424D01*
X017775Y007420D01*
X017751Y007420D01*
X017729Y007424D01*
X017707Y007432D01*
X017686Y007443D01*
X017668Y007457D01*
X017653Y007474D01*
X017640Y007493D01*
X017631Y007515D01*
X017625Y007537D01*
X017623Y007560D01*
X017623Y004810D02*
X017625Y004833D01*
X017631Y004855D01*
X017640Y004877D01*
X017653Y004896D01*
X017668Y004913D01*
X017686Y004927D01*
X017707Y004938D01*
X017729Y004946D01*
X017751Y004950D01*
X017775Y004950D01*
X017797Y004946D01*
X017819Y004938D01*
X017840Y004927D01*
X017858Y004913D01*
X017873Y004896D01*
X017886Y004877D01*
X017895Y004855D01*
X017901Y004833D01*
X017903Y004810D01*
X017901Y004787D01*
X017895Y004765D01*
X017886Y004743D01*
X017873Y004724D01*
X017858Y004707D01*
X017840Y004693D01*
X017819Y004682D01*
X017797Y004674D01*
X017775Y004670D01*
X017751Y004670D01*
X017729Y004674D01*
X017707Y004682D01*
X017686Y004693D01*
X017668Y004707D01*
X017653Y004724D01*
X017640Y004743D01*
X017631Y004765D01*
X017625Y004787D01*
X017623Y004810D01*
D12*
X003415Y002190D02*
X003229Y002190D01*
X003369Y002330D01*
X003369Y002050D01*
X004045Y002850D02*
X004199Y002850D01*
X004122Y002850D02*
X004122Y003310D01*
X004045Y003310D02*
X004199Y003310D01*
X004352Y003234D02*
X004352Y002927D01*
X004429Y002850D01*
X004583Y002850D01*
X004659Y002927D01*
X004813Y002850D02*
X005120Y002850D01*
X004966Y002850D02*
X004966Y003310D01*
X004813Y003157D01*
X004659Y003234D02*
X004583Y003310D01*
X004429Y003310D01*
X004352Y003234D01*
X004487Y004754D02*
X004673Y004941D01*
X004673Y004987D01*
X004627Y005034D01*
X004533Y005034D01*
X004487Y004987D01*
X004487Y004754D02*
X004673Y004754D01*
X005338Y004750D02*
X005525Y004750D01*
X005431Y004750D02*
X005431Y005030D01*
X005338Y004937D01*
X003763Y004937D02*
X003717Y004890D01*
X003763Y004843D01*
X003763Y004797D01*
X003717Y004750D01*
X003623Y004750D01*
X003577Y004797D01*
X003670Y004890D02*
X003717Y004890D01*
X003763Y004937D02*
X003763Y004984D01*
X003717Y005030D01*
X003623Y005030D01*
X003577Y004984D01*
X018573Y004870D02*
X018573Y004810D01*
X018633Y004750D01*
X018753Y004750D01*
X018813Y004690D01*
X018813Y004630D01*
X018753Y004570D01*
X018633Y004570D01*
X018573Y004630D01*
X018573Y004690D01*
X018633Y004750D01*
X018753Y004750D02*
X018813Y004810D01*
X018813Y004870D01*
X018753Y004930D01*
X018633Y004930D01*
X018573Y004870D01*
X018633Y007320D02*
X018573Y007380D01*
X018573Y007440D01*
X018633Y007500D01*
X018753Y007500D01*
X018813Y007440D01*
X018813Y007380D01*
X018753Y007320D01*
X018633Y007320D01*
X018633Y007500D02*
X018573Y007560D01*
X018573Y007620D01*
X018633Y007680D01*
X018753Y007680D01*
X018813Y007620D01*
X018813Y007560D01*
X018753Y007500D01*
X018753Y010070D02*
X018633Y010070D01*
X018573Y010130D01*
X018573Y010190D01*
X018633Y010250D01*
X018753Y010250D01*
X018813Y010190D01*
X018813Y010130D01*
X018753Y010070D01*
X018753Y010250D02*
X018813Y010310D01*
X018813Y010370D01*
X018753Y010430D01*
X018633Y010430D01*
X018573Y010370D01*
X018573Y010310D01*
X018633Y010250D01*
D13*
X010883Y008230D02*
X010883Y005470D01*
X008263Y005470D01*
X008123Y005610D01*
X008123Y008230D01*
X010883Y008230D01*
X008282Y005770D02*
X008284Y005793D01*
X008290Y005816D01*
X008299Y005837D01*
X008312Y005857D01*
X008328Y005874D01*
X008346Y005888D01*
X008366Y005899D01*
X008388Y005907D01*
X008411Y005911D01*
X008435Y005911D01*
X008458Y005907D01*
X008480Y005899D01*
X008500Y005888D01*
X008518Y005874D01*
X008534Y005857D01*
X008547Y005837D01*
X008556Y005816D01*
X008562Y005793D01*
X008564Y005770D01*
X008562Y005747D01*
X008556Y005724D01*
X008547Y005703D01*
X008534Y005683D01*
X008518Y005666D01*
X008500Y005652D01*
X008480Y005641D01*
X008458Y005633D01*
X008435Y005629D01*
X008411Y005629D01*
X008388Y005633D01*
X008366Y005641D01*
X008346Y005652D01*
X008328Y005666D01*
X008312Y005683D01*
X008299Y005703D01*
X008290Y005724D01*
X008284Y005747D01*
X008282Y005770D01*
X011767Y004718D02*
X011767Y004482D01*
X012239Y004482D02*
X012239Y004718D01*
X012767Y004732D02*
X012767Y004968D01*
X013239Y004968D02*
X013239Y004732D01*
D14*
X007488Y005823D02*
X007440Y005775D01*
X007198Y005775D01*
X007488Y005823D02*
X007488Y005920D01*
X007440Y005968D01*
X007198Y005968D01*
X007295Y006070D02*
X007198Y006166D01*
X007488Y006166D01*
X007488Y006070D02*
X007488Y006263D01*
D15*
X005991Y008100D02*
X005003Y008100D01*
X004503Y008494D02*
X004503Y009706D01*
X005015Y010100D02*
X005991Y010100D01*
X006503Y009706D02*
X006503Y008494D01*
X005003Y009100D02*
X005005Y009144D01*
X005011Y009188D01*
X005021Y009231D01*
X005034Y009273D01*
X005051Y009314D01*
X005072Y009353D01*
X005096Y009390D01*
X005123Y009425D01*
X005153Y009457D01*
X005186Y009487D01*
X005222Y009513D01*
X005259Y009537D01*
X005299Y009556D01*
X005340Y009573D01*
X005383Y009585D01*
X005426Y009594D01*
X005470Y009599D01*
X005514Y009600D01*
X005558Y009597D01*
X005602Y009590D01*
X005645Y009579D01*
X005687Y009565D01*
X005727Y009547D01*
X005766Y009525D01*
X005802Y009501D01*
X005836Y009473D01*
X005868Y009442D01*
X005897Y009408D01*
X005923Y009372D01*
X005945Y009334D01*
X005964Y009294D01*
X005979Y009252D01*
X005991Y009210D01*
X005999Y009166D01*
X006003Y009122D01*
X006003Y009078D01*
X005999Y009034D01*
X005991Y008990D01*
X005979Y008948D01*
X005964Y008906D01*
X005945Y008866D01*
X005923Y008828D01*
X005897Y008792D01*
X005868Y008758D01*
X005836Y008727D01*
X005802Y008699D01*
X005766Y008675D01*
X005727Y008653D01*
X005687Y008635D01*
X005645Y008621D01*
X005602Y008610D01*
X005558Y008603D01*
X005514Y008600D01*
X005470Y008601D01*
X005426Y008606D01*
X005383Y008615D01*
X005340Y008627D01*
X005299Y008644D01*
X005259Y008663D01*
X005222Y008687D01*
X005186Y008713D01*
X005153Y008743D01*
X005123Y008775D01*
X005096Y008810D01*
X005072Y008847D01*
X005051Y008886D01*
X005034Y008927D01*
X005021Y008969D01*
X005011Y009012D01*
X005005Y009056D01*
X005003Y009100D01*
X003897Y009045D02*
X003897Y008494D01*
X003779Y008218D02*
X003503Y008218D01*
X003739Y007982D01*
X003267Y007982D01*
X003503Y008218D01*
X003228Y008218D01*
X003110Y008494D02*
X003110Y009045D01*
X003897Y009045D01*
X002976Y009084D02*
X002976Y008494D01*
X002976Y009084D02*
X002031Y009084D01*
X002031Y008494D01*
X002031Y007706D02*
X002031Y007273D01*
X002188Y007116D01*
X002818Y007116D01*
X002976Y007273D01*
X002976Y007706D01*
X003110Y007706D02*
X003110Y007155D01*
X003897Y007155D01*
X003897Y007706D01*
X007281Y009523D02*
X007438Y009366D01*
X008068Y009366D01*
X008226Y009523D01*
X008226Y009956D01*
X007281Y009956D02*
X007281Y009523D01*
X007281Y010744D02*
X007281Y011334D01*
X008226Y011334D01*
X008226Y010744D01*
X006253Y012100D02*
X006253Y012600D01*
X006003Y012850D01*
X005503Y012850D01*
X005253Y012600D01*
X005003Y012850D01*
X004503Y012850D01*
X004253Y012600D01*
X004003Y012850D01*
X003503Y012850D01*
X003253Y012600D01*
X003253Y012100D01*
X003503Y011850D01*
X004003Y011850D01*
X004253Y012100D01*
X004503Y011850D01*
X005003Y011850D01*
X005253Y012100D01*
X005503Y011850D01*
X006003Y011850D01*
X006253Y012100D01*
X005543Y004050D02*
X002963Y004050D01*
X002963Y002650D01*
X005543Y002650D01*
X005543Y004050D01*
X009795Y003856D02*
X009795Y003344D01*
X011212Y003344D02*
X011212Y003856D01*
X011610Y003795D02*
X011610Y003244D01*
X011767Y002968D02*
X012003Y002732D01*
X012239Y002968D01*
X011767Y002968D01*
X011728Y002732D02*
X012003Y002732D01*
X012279Y002732D01*
X012397Y002456D02*
X012397Y001905D01*
X011610Y001905D01*
X011610Y002456D01*
X012610Y002456D02*
X012610Y001905D01*
X013397Y001905D01*
X013397Y002456D01*
X013279Y002732D02*
X013003Y002732D01*
X012767Y002968D01*
X013239Y002968D01*
X013003Y002732D01*
X012728Y002732D01*
X012610Y003244D02*
X012610Y003795D01*
X013397Y003795D01*
X013397Y003244D01*
X012397Y003244D02*
X012397Y003795D01*
X011610Y003795D01*
X020253Y003850D02*
X020253Y003350D01*
X020503Y003100D01*
X021003Y003100D01*
X021253Y003350D01*
X021253Y003850D01*
X021003Y004100D01*
X021253Y004350D01*
X021253Y004850D01*
X021003Y005100D01*
X020503Y005100D01*
X020253Y004850D01*
X020253Y004350D01*
X020503Y004100D01*
X020253Y003850D01*
X020503Y005850D02*
X021003Y005850D01*
X021253Y006100D01*
X021253Y006600D01*
X021003Y006850D01*
X021253Y007100D01*
X021253Y007600D01*
X021003Y007850D01*
X020503Y007850D01*
X020253Y007600D01*
X020253Y007100D01*
X020503Y006850D01*
X020253Y006600D01*
X020253Y006100D01*
X020503Y005850D01*
X020503Y008600D02*
X021003Y008600D01*
X021253Y008850D01*
X021253Y009350D01*
X021003Y009600D01*
X021253Y009850D01*
X021253Y010350D01*
X021003Y010600D01*
X020503Y010600D01*
X020253Y010350D01*
X020253Y009850D01*
X020503Y009600D01*
X020253Y009350D01*
X020253Y008850D01*
X020503Y008600D01*
D16*
X016858Y009810D02*
X016708Y009810D01*
X016708Y009885D01*
X016733Y009910D01*
X016783Y009910D01*
X016808Y009885D01*
X016808Y009810D01*
X016808Y009860D02*
X016858Y009910D01*
X016783Y009958D02*
X016783Y010058D01*
X016708Y010033D02*
X016783Y009958D01*
X016858Y010033D02*
X016708Y010033D01*
X014548Y009500D02*
X014548Y009400D01*
X014448Y009500D01*
X014423Y009500D01*
X014398Y009475D01*
X014398Y009425D01*
X014423Y009400D01*
X014398Y009302D02*
X014548Y009302D01*
X014548Y009252D02*
X014548Y009352D01*
X014448Y009252D02*
X014398Y009302D01*
X014423Y009205D02*
X014473Y009205D01*
X014498Y009180D01*
X014498Y009105D01*
X014498Y009155D02*
X014548Y009205D01*
X014548Y009105D02*
X014398Y009105D01*
X014398Y009180D01*
X014423Y009205D01*
X016708Y007283D02*
X016733Y007308D01*
X016758Y007308D01*
X016783Y007283D01*
X016808Y007308D01*
X016833Y007308D01*
X016858Y007283D01*
X016858Y007233D01*
X016833Y007208D01*
X016858Y007160D02*
X016808Y007110D01*
X016808Y007135D02*
X016808Y007060D01*
X016858Y007060D02*
X016708Y007060D01*
X016708Y007135D01*
X016733Y007160D01*
X016783Y007160D01*
X016808Y007135D01*
X016733Y007208D02*
X016708Y007233D01*
X016708Y007283D01*
X016783Y007283D02*
X016783Y007258D01*
X014548Y006750D02*
X014548Y006650D01*
X014548Y006602D02*
X014548Y006502D01*
X014548Y006455D02*
X014498Y006405D01*
X014498Y006430D02*
X014498Y006355D01*
X014548Y006355D02*
X014398Y006355D01*
X014398Y006430D01*
X014423Y006455D01*
X014473Y006455D01*
X014498Y006430D01*
X014448Y006502D02*
X014398Y006552D01*
X014548Y006552D01*
X014448Y006650D02*
X014398Y006700D01*
X014548Y006700D01*
X013458Y005108D02*
X013483Y005083D01*
X013483Y005033D01*
X013458Y005008D01*
X013433Y005008D01*
X013408Y005033D01*
X013408Y005083D01*
X013433Y005108D01*
X013458Y005108D01*
X013408Y005083D02*
X013383Y005108D01*
X013358Y005108D01*
X013333Y005083D01*
X013333Y005033D01*
X013358Y005008D01*
X013383Y005008D01*
X013408Y005033D01*
X013408Y004960D02*
X013433Y004935D01*
X013433Y004860D01*
X013483Y004860D02*
X013333Y004860D01*
X013333Y004935D01*
X013358Y004960D01*
X013408Y004960D01*
X013433Y004910D02*
X013483Y004960D01*
X012483Y004758D02*
X012458Y004758D01*
X012358Y004858D01*
X012333Y004858D01*
X012333Y004758D01*
X012358Y004710D02*
X012408Y004710D01*
X012433Y004685D01*
X012433Y004610D01*
X012483Y004610D02*
X012333Y004610D01*
X012333Y004685D01*
X012358Y004710D01*
X012433Y004660D02*
X012483Y004710D01*
X010406Y004105D02*
X010306Y004105D01*
X010356Y004105D02*
X010356Y004255D01*
X010306Y004205D01*
X010258Y004230D02*
X010258Y004255D01*
X010258Y004230D02*
X010208Y004180D01*
X010208Y004105D01*
X010208Y004180D02*
X010158Y004230D01*
X010158Y004255D01*
X012558Y003133D02*
X012633Y003058D01*
X012633Y003158D01*
X012708Y003133D02*
X012558Y003133D01*
X012583Y003010D02*
X012558Y002985D01*
X012558Y002910D01*
X012708Y002910D01*
X012708Y002985D01*
X012683Y003010D01*
X012583Y003010D01*
X012558Y002863D02*
X012558Y002763D01*
X012708Y002763D01*
X012708Y002863D01*
X012633Y002813D02*
X012633Y002763D01*
X012708Y002716D02*
X012708Y002616D01*
X012558Y002616D01*
X013558Y002616D02*
X013708Y002616D01*
X013708Y002716D01*
X013708Y002763D02*
X013708Y002863D01*
X013708Y002910D02*
X013708Y002985D01*
X013683Y003010D01*
X013583Y003010D01*
X013558Y002985D01*
X013558Y002910D01*
X013708Y002910D01*
X013633Y002813D02*
X013633Y002763D01*
X013558Y002763D02*
X013708Y002763D01*
X013558Y002763D02*
X013558Y002863D01*
X013583Y003058D02*
X013558Y003083D01*
X013558Y003133D01*
X013583Y003158D01*
X013608Y003158D01*
X013708Y003058D01*
X013708Y003158D01*
X015458Y004163D02*
X015458Y004238D01*
X015483Y004263D01*
X015533Y004263D01*
X015558Y004238D01*
X015558Y004163D01*
X015558Y004213D02*
X015608Y004263D01*
X015608Y004310D02*
X015608Y004410D01*
X015608Y004360D02*
X015458Y004360D01*
X015508Y004310D01*
X015483Y004458D02*
X015458Y004483D01*
X015458Y004533D01*
X015483Y004558D01*
X015583Y004458D01*
X015608Y004483D01*
X015608Y004533D01*
X015583Y004558D01*
X015483Y004558D01*
X015483Y004458D02*
X015583Y004458D01*
X015608Y004163D02*
X015458Y004163D01*
X015673Y003852D02*
X015648Y003827D01*
X015648Y003777D01*
X015673Y003752D01*
X015673Y003705D02*
X015723Y003705D01*
X015748Y003680D01*
X015748Y003605D01*
X015748Y003655D02*
X015798Y003705D01*
X015798Y003752D02*
X015698Y003852D01*
X015673Y003852D01*
X015798Y003852D02*
X015798Y003752D01*
X015673Y003705D02*
X015648Y003680D01*
X015648Y003605D01*
X015798Y003605D01*
X006711Y005745D02*
X006611Y005745D01*
X006564Y005745D02*
X006514Y005795D01*
X006539Y005795D02*
X006464Y005795D01*
X006464Y005745D02*
X006464Y005895D01*
X006539Y005895D01*
X006564Y005870D01*
X006564Y005820D01*
X006539Y005795D01*
X006611Y005845D02*
X006661Y005895D01*
X006661Y005745D01*
X004006Y006830D02*
X004006Y006855D01*
X003981Y006880D01*
X003906Y006880D01*
X003906Y006830D01*
X003931Y006805D01*
X003981Y006805D01*
X004006Y006830D01*
X003956Y006930D02*
X004006Y006955D01*
X003956Y006930D02*
X003906Y006880D01*
X003858Y006880D02*
X003833Y006855D01*
X003758Y006855D01*
X003758Y006805D02*
X003758Y006955D01*
X003833Y006955D01*
X003858Y006930D01*
X003858Y006880D01*
X003808Y006855D02*
X003858Y006805D01*
X002948Y007755D02*
X002798Y007755D01*
X002798Y007902D02*
X002948Y007902D01*
X002948Y008002D01*
X002948Y008050D02*
X002948Y008125D01*
X002923Y008150D01*
X002823Y008150D01*
X002798Y008125D01*
X002798Y008050D01*
X002948Y008050D01*
X002873Y007952D02*
X002873Y007902D01*
X002798Y007902D02*
X002798Y008002D01*
X002848Y008197D02*
X002798Y008247D01*
X002948Y008247D01*
X002948Y008197D02*
X002948Y008297D01*
X002948Y007855D02*
X002948Y007755D01*
X004648Y008780D02*
X004673Y008755D01*
X004698Y008755D01*
X004723Y008780D01*
X004723Y008830D01*
X004748Y008855D01*
X004773Y008855D01*
X004798Y008830D01*
X004798Y008780D01*
X004773Y008755D01*
X004648Y008780D02*
X004648Y008830D01*
X004673Y008855D01*
X004698Y008902D02*
X004648Y008952D01*
X004798Y008952D01*
X004798Y008902D02*
X004798Y009002D01*
X003202Y008958D02*
X003102Y009058D01*
X003077Y009058D01*
X003052Y009033D01*
X003052Y008983D01*
X003077Y008958D01*
X003077Y008910D02*
X003052Y008885D01*
X003052Y008835D01*
X003077Y008810D01*
X003177Y008810D01*
X003202Y008835D01*
X003202Y008885D01*
X003177Y008910D01*
X003202Y008958D02*
X003202Y009058D01*
X008302Y011085D02*
X008327Y011060D01*
X008427Y011060D01*
X008452Y011085D01*
X008452Y011135D01*
X008427Y011160D01*
X008452Y011208D02*
X008452Y011308D01*
X008452Y011258D02*
X008302Y011258D01*
X008352Y011208D01*
X008327Y011160D02*
X008302Y011135D01*
X008302Y011085D01*
X009208Y010783D02*
X009283Y010708D01*
X009283Y010808D01*
X009358Y010783D02*
X009208Y010783D01*
X009233Y010660D02*
X009208Y010635D01*
X009208Y010585D01*
X009233Y010560D01*
X009333Y010560D01*
X009358Y010585D01*
X009358Y010635D01*
X009333Y010660D01*
M02*
