G75*
%MOIN*%
%OFA0B0*%
%FSLAX24Y24*%
%IPPOS*%
%LPD*%
%AMOC8*
5,1,8,0,0,1.08239X$1,22.5*
%
%ADD10C,0.0867*%
%ADD11C,0.0820*%
%ADD12R,0.0820X0.0820*%
%ADD13OC8,0.0820*%
%ADD14R,0.0380X0.0530*%
%ADD15R,0.0946X0.0316*%
%ADD16C,0.0730*%
%ADD17R,0.0789X0.0710*%
%ADD18R,0.0710X0.0789*%
%ADD19OC8,0.0600*%
D10*
X001753Y001600D03*
X001753Y012600D03*
X020503Y012600D03*
X020503Y001600D03*
D11*
X020753Y003600D03*
X020753Y004600D03*
X020753Y006350D03*
X020753Y007350D03*
X020753Y009100D03*
X020753Y010100D03*
X005753Y012350D03*
X004753Y012350D03*
X003753Y012350D03*
X001503Y006850D03*
X001503Y005850D03*
X001503Y004850D03*
D12*
X001503Y003850D03*
X013003Y012100D03*
D13*
X012003Y012100D03*
X011003Y012100D03*
X011003Y011100D03*
X012003Y011100D03*
X013003Y011100D03*
D14*
X011503Y008735D03*
X011003Y008735D03*
X010503Y008735D03*
X010003Y008735D03*
X009503Y008735D03*
X009003Y008735D03*
X008503Y008735D03*
X008003Y008735D03*
X007503Y008735D03*
X007503Y004965D03*
X008003Y004965D03*
X008503Y004965D03*
X009003Y004965D03*
X009503Y004965D03*
X010003Y004965D03*
X010503Y004965D03*
X011003Y004965D03*
X011503Y004965D03*
D15*
X005777Y005100D03*
X005777Y004600D03*
X005777Y004100D03*
X005777Y003600D03*
X003730Y003600D03*
X003730Y004100D03*
X003730Y004600D03*
X003730Y005100D03*
D16*
X008503Y002850D03*
X010503Y002850D03*
D17*
X002753Y003799D03*
X002753Y004901D03*
D18*
X002702Y006100D03*
X003804Y006100D03*
D19*
X005753Y007600D03*
X007003Y005600D03*
X007253Y004100D03*
X012753Y006100D03*
X012503Y007850D03*
X012503Y008600D03*
X011753Y009600D03*
X009753Y010100D03*
X009753Y012100D03*
M02*
