%
M48
M72
T01C0.0236
T02C0.0400
T03C0.0787
%
T01
X7003Y3850
X7003Y5600
X5753Y7600
X9753Y10100
X11753Y9600
X12503Y8600
X12503Y7850
X12753Y6100
X9753Y12100
T02
X11003Y12100
X12003Y12100
X13003Y12100
X13003Y11100
X12003Y11100
X11003Y11100
X5753Y12350
X4753Y12350
X3753Y12350
X1503Y6850
X1503Y5850
X1503Y4850
X1503Y3850
X20753Y3600
X20753Y4600
X20753Y6350
X20753Y7350
X20753Y9100
X20753Y10100
T03
X1753Y1600
X1753Y12600
X20503Y12600
X20503Y1600
M30
