G75*
%MOIN*%
%OFA0B0*%
%FSLAX24Y24*%
%IPPOS*%
%LPD*%
%AMOC8*
5,1,8,0,0,1.08239X$1,22.5*
%
%ADD10C,0.0740*%
%ADD11R,0.0740X0.0740*%
%ADD12OC8,0.0740*%
%ADD13R,0.0300X0.0450*%
%ADD14R,0.0866X0.0236*%
%ADD15C,0.0650*%
%ADD16R,0.0709X0.0630*%
%ADD17R,0.0630X0.0709*%
%ADD18C,0.0200*%
%ADD19OC8,0.0520*%
%ADD20C,0.0160*%
D10*
X001503Y004850D03*
X001503Y005850D03*
X001503Y006850D03*
X003753Y012350D03*
X004753Y012350D03*
X005753Y012350D03*
X020753Y010100D03*
X020753Y009100D03*
X020753Y007350D03*
X020753Y006350D03*
X020753Y004600D03*
X020753Y003600D03*
D11*
X013003Y012100D03*
X001503Y003850D03*
D12*
X011003Y011100D03*
X012003Y011100D03*
X013003Y011100D03*
X012003Y012100D03*
X011003Y012100D03*
D13*
X011003Y008735D03*
X010503Y008735D03*
X010003Y008735D03*
X009503Y008735D03*
X009003Y008735D03*
X008503Y008735D03*
X008003Y008735D03*
X007503Y008735D03*
X011503Y008735D03*
X011503Y004965D03*
X011003Y004965D03*
X010503Y004965D03*
X010003Y004965D03*
X009503Y004965D03*
X009003Y004965D03*
X008503Y004965D03*
X008003Y004965D03*
X007503Y004965D03*
D14*
X005777Y005100D03*
X005777Y004600D03*
X005777Y004100D03*
X005777Y003600D03*
X003730Y003600D03*
X003730Y004100D03*
X003730Y004600D03*
X003730Y005100D03*
D15*
X008503Y002850D03*
X010503Y002850D03*
D16*
X002753Y003799D03*
X002753Y004901D03*
D17*
X002702Y006100D03*
X003804Y006100D03*
D18*
X003730Y006025D01*
X003730Y005100D01*
X003730Y004600D02*
X003054Y004600D01*
X002753Y004901D01*
X001554Y004901D01*
X001503Y004850D01*
X001503Y003850D02*
X001554Y003799D01*
X002753Y003799D01*
X003054Y004100D01*
X003730Y004100D01*
X005003Y004850D02*
X005253Y005100D01*
X005777Y005100D01*
X005003Y004850D02*
X005003Y003100D01*
X006503Y001600D01*
X011003Y001600D01*
X011753Y002350D01*
X011753Y003350D01*
X011503Y003600D01*
X011503Y004965D01*
X011003Y004965D02*
X011003Y003350D01*
X011253Y003100D01*
X011253Y002600D01*
X010753Y002100D01*
X006753Y002100D01*
X005753Y003100D01*
X005753Y003576D01*
X005777Y003600D01*
X005777Y004100D02*
X007253Y004100D01*
X008003Y004350D02*
X008003Y004965D01*
X008503Y004965D02*
X008503Y004350D01*
X010003Y002850D01*
X010503Y002850D01*
X008503Y002850D02*
X008503Y003850D01*
X008003Y004350D01*
X007753Y005600D02*
X007003Y005600D01*
X007753Y005600D02*
X008503Y006350D01*
X008503Y008735D01*
X009003Y008735D02*
X009003Y009350D01*
X009753Y010100D01*
X009003Y010350D02*
X007753Y010350D01*
X007003Y009600D01*
X007003Y009350D01*
X006003Y008350D01*
X006003Y008100D01*
X005753Y007850D01*
X005753Y007600D01*
X009503Y008100D02*
X009503Y008735D01*
X010003Y008735D02*
X010003Y008100D01*
X012503Y005600D01*
X013003Y005600D01*
X013253Y005850D01*
X013253Y006350D01*
X012003Y007600D01*
X012003Y008100D01*
X012503Y008600D01*
X012753Y008850D01*
X012753Y009600D01*
X013753Y010600D01*
X013753Y011850D01*
X013503Y012100D01*
X013003Y012100D01*
X012003Y012100D02*
X011253Y012850D01*
X010503Y012850D01*
X009753Y012100D01*
X010003Y011100D02*
X011003Y012100D01*
X010003Y011100D02*
X010003Y010850D01*
X009503Y010850D01*
X009003Y010350D01*
X010003Y010850D02*
X011003Y009850D01*
X011003Y008735D01*
X010503Y008735D02*
X010503Y008100D01*
X012503Y006100D01*
X012753Y006100D01*
X013753Y005850D02*
X013003Y005100D01*
X012503Y005100D01*
X009503Y008100D01*
X011503Y008735D02*
X011503Y009350D01*
X011753Y009600D01*
X012003Y009600D01*
X013003Y010600D01*
X013003Y011100D01*
X012503Y007850D02*
X013753Y006600D01*
X013753Y005850D01*
D19*
X012753Y006100D03*
X012503Y007850D03*
X012503Y008600D03*
X011753Y009600D03*
X009753Y010100D03*
X009753Y012100D03*
X005753Y007600D03*
X007003Y005600D03*
X007253Y004100D03*
D20*
X001098Y000844D02*
X000997Y000945D01*
X000912Y001059D01*
X000844Y001185D01*
X000794Y001318D01*
X000763Y001458D01*
X000753Y001600D01*
X000753Y012600D01*
X000763Y012742D01*
X000794Y012882D01*
X000844Y013015D01*
X000912Y013141D01*
X000997Y013255D01*
X001098Y013356D01*
X001213Y013441D01*
X001338Y013510D01*
X001471Y013559D01*
X001611Y013590D01*
X001753Y013600D01*
X020503Y013600D01*
X020646Y013590D01*
X020785Y013559D01*
X020919Y013510D01*
X021044Y013441D01*
X021158Y013356D01*
X021259Y013255D01*
X021344Y013141D01*
X021413Y013015D01*
X021463Y012882D01*
X021493Y012742D01*
X021503Y012600D01*
X021503Y001600D01*
X021493Y001458D01*
X021463Y001318D01*
X021413Y001185D01*
X021344Y001059D01*
X021259Y000945D01*
X021158Y000844D01*
X021044Y000759D01*
X020919Y000690D01*
X020785Y000641D01*
X020646Y000610D01*
X020503Y000600D01*
X001753Y000600D01*
X001611Y000610D01*
X001471Y000641D01*
X001338Y000690D01*
X001213Y000759D01*
X001098Y000844D01*
X001050Y000893D02*
X001225Y000893D01*
X001258Y000859D02*
X001579Y000726D01*
X001927Y000726D01*
X002248Y000859D01*
X002494Y001105D01*
X002627Y001426D01*
X002627Y001774D01*
X002494Y002095D01*
X002248Y002341D01*
X001927Y002474D01*
X001579Y002474D01*
X001258Y002341D01*
X001013Y002095D01*
X000880Y001774D01*
X000880Y001426D01*
X001013Y001105D01*
X001258Y000859D01*
X001258Y000734D02*
X001561Y000734D01*
X001946Y000734D02*
X020311Y000734D01*
X020329Y000726D02*
X020677Y000726D01*
X020998Y000859D01*
X021244Y001105D01*
X021377Y001426D01*
X021377Y001774D01*
X021244Y002095D01*
X020998Y002341D01*
X020677Y002474D01*
X020329Y002474D01*
X020008Y002341D01*
X019763Y002095D01*
X019630Y001774D01*
X019630Y001426D01*
X019763Y001105D01*
X020008Y000859D01*
X020329Y000726D01*
X020696Y000734D02*
X020999Y000734D01*
X021031Y000893D02*
X021206Y000893D01*
X021190Y001051D02*
X021338Y001051D01*
X021287Y001210D02*
X021422Y001210D01*
X021474Y001368D02*
X021353Y001368D01*
X021377Y001527D02*
X021498Y001527D01*
X021503Y001685D02*
X021377Y001685D01*
X021348Y001844D02*
X021503Y001844D01*
X021503Y002002D02*
X021282Y002002D01*
X021178Y002161D02*
X021503Y002161D01*
X021503Y002319D02*
X021020Y002319D01*
X021503Y002478D02*
X012053Y002478D01*
X012053Y002410D02*
X012053Y003410D01*
X012008Y003520D01*
X011923Y003604D01*
X011803Y003724D01*
X011803Y004607D01*
X011853Y004657D01*
X011853Y005273D01*
X011736Y005390D01*
X011270Y005390D01*
X011253Y005373D01*
X011236Y005390D01*
X010770Y005390D01*
X010753Y005373D01*
X010736Y005390D01*
X010270Y005390D01*
X010253Y005373D01*
X010236Y005390D01*
X009770Y005390D01*
X009753Y005373D01*
X009736Y005390D01*
X009270Y005390D01*
X009253Y005373D01*
X009236Y005390D01*
X008770Y005390D01*
X008753Y005373D01*
X008736Y005390D01*
X008270Y005390D01*
X008253Y005373D01*
X008236Y005390D01*
X007967Y005390D01*
X008673Y006096D01*
X008758Y006180D01*
X008803Y006290D01*
X008803Y008310D01*
X009203Y008310D01*
X009203Y008040D01*
X009249Y007930D01*
X009333Y007846D01*
X012333Y004846D01*
X012444Y004800D01*
X013063Y004800D01*
X013173Y004846D01*
X013258Y004930D01*
X014008Y005680D01*
X014053Y005790D01*
X014053Y006660D01*
X014008Y006770D01*
X013923Y006854D01*
X012963Y007814D01*
X012963Y008040D01*
X012779Y008225D01*
X012963Y008410D01*
X012963Y008636D01*
X013008Y008680D01*
X013053Y008790D01*
X013053Y009476D01*
X014008Y010430D01*
X014053Y010540D01*
X014053Y011910D01*
X014008Y012020D01*
X013923Y012104D01*
X013673Y012354D01*
X013573Y012396D01*
X013573Y012553D01*
X013456Y012670D01*
X012550Y012670D01*
X012433Y012553D01*
X012433Y012476D01*
X012239Y012670D01*
X011857Y012670D01*
X011508Y013020D01*
X011423Y013104D01*
X011313Y013150D01*
X010444Y013150D01*
X010333Y013104D01*
X009789Y012560D01*
X009563Y012560D01*
X009293Y012290D01*
X009293Y011910D01*
X009563Y011640D01*
X009944Y011640D01*
X010213Y011910D01*
X010213Y012136D01*
X010627Y012550D01*
X010647Y012550D01*
X010433Y012336D01*
X010433Y011954D01*
X009749Y011270D01*
X009703Y011160D01*
X009703Y011150D01*
X009444Y011150D01*
X009333Y011104D01*
X008879Y010650D01*
X007694Y010650D01*
X007583Y010604D01*
X007499Y010520D01*
X006749Y009770D01*
X006703Y009660D01*
X006703Y009474D01*
X005749Y008520D01*
X005703Y008410D01*
X005703Y008224D01*
X005499Y008020D01*
X005482Y007979D01*
X005293Y007790D01*
X005293Y007410D01*
X005563Y007140D01*
X005944Y007140D01*
X006213Y007410D01*
X006213Y007790D01*
X006165Y007838D01*
X006173Y007846D01*
X006258Y007930D01*
X006303Y008040D01*
X006303Y008226D01*
X007258Y009180D01*
X007303Y009290D01*
X007303Y009476D01*
X007877Y010050D01*
X009063Y010050D01*
X009173Y010096D01*
X009258Y010180D01*
X009293Y010216D01*
X009293Y010064D01*
X008749Y009520D01*
X008703Y009410D01*
X008703Y009160D01*
X008270Y009160D01*
X008253Y009143D01*
X008236Y009160D01*
X007770Y009160D01*
X007753Y009143D01*
X007736Y009160D01*
X007270Y009160D01*
X007153Y009043D01*
X007153Y008427D01*
X007270Y008310D01*
X007736Y008310D01*
X007753Y008327D01*
X007770Y008310D01*
X008203Y008310D01*
X008203Y006474D01*
X007629Y005900D01*
X007354Y005900D01*
X007194Y006060D01*
X006813Y006060D01*
X006543Y005790D01*
X006543Y005410D01*
X006813Y005140D01*
X007153Y005140D01*
X007153Y004965D01*
X007503Y004965D01*
X007153Y004965D01*
X007153Y004714D01*
X007167Y004663D01*
X007193Y004617D01*
X007230Y004580D01*
X007265Y004560D01*
X007063Y004560D01*
X006903Y004400D01*
X006394Y004400D01*
X006396Y004405D01*
X006410Y004456D01*
X006410Y004600D01*
X006410Y004744D01*
X006396Y004795D01*
X006370Y004841D01*
X006361Y004850D01*
X006410Y004899D01*
X006410Y005301D01*
X006293Y005418D01*
X005261Y005418D01*
X005243Y005400D01*
X005194Y005400D01*
X005083Y005354D01*
X004999Y005270D01*
X004749Y005020D01*
X004703Y004910D01*
X004703Y003040D01*
X004749Y002930D01*
X004833Y002846D01*
X006333Y001346D01*
X006444Y001300D01*
X011063Y001300D01*
X011173Y001346D01*
X011258Y001430D01*
X012008Y002180D01*
X012053Y002290D01*
X012053Y002410D01*
X012053Y002319D02*
X019987Y002319D01*
X019828Y002161D02*
X011988Y002161D01*
X011829Y002002D02*
X019724Y002002D01*
X019658Y001844D02*
X011671Y001844D01*
X011512Y001685D02*
X019630Y001685D01*
X019630Y001527D02*
X011354Y001527D01*
X011195Y001368D02*
X019654Y001368D01*
X019719Y001210D02*
X002537Y001210D01*
X002603Y001368D02*
X006311Y001368D01*
X006152Y001527D02*
X002627Y001527D01*
X002627Y001685D02*
X005994Y001685D01*
X005835Y001844D02*
X002598Y001844D01*
X002532Y002002D02*
X005677Y002002D01*
X005518Y002161D02*
X002428Y002161D01*
X002270Y002319D02*
X005360Y002319D01*
X005201Y002478D02*
X000753Y002478D01*
X000753Y002636D02*
X005043Y002636D01*
X004884Y002795D02*
X000753Y002795D01*
X000753Y002953D02*
X004739Y002953D01*
X004703Y003112D02*
X000753Y003112D01*
X000753Y003270D02*
X004703Y003270D01*
X004703Y003429D02*
X004363Y003429D01*
X004363Y003399D02*
X004363Y003801D01*
X004314Y003850D01*
X004363Y003899D01*
X004363Y004301D01*
X004314Y004350D01*
X004363Y004399D01*
X004363Y004801D01*
X004314Y004850D01*
X004363Y004899D01*
X004363Y005301D01*
X004245Y005418D01*
X004030Y005418D01*
X004030Y005546D01*
X004202Y005546D01*
X004319Y005663D01*
X004319Y006537D01*
X004202Y006654D01*
X003407Y006654D01*
X003289Y006537D01*
X003289Y005663D01*
X003407Y005546D01*
X003430Y005546D01*
X003430Y005418D01*
X003214Y005418D01*
X003201Y005405D01*
X003190Y005416D01*
X002316Y005416D01*
X002199Y005299D01*
X002199Y005201D01*
X001958Y005201D01*
X001826Y005333D01*
X001781Y005352D01*
X001802Y005362D01*
X001875Y005415D01*
X001938Y005479D01*
X001991Y005551D01*
X002031Y005631D01*
X002059Y005717D01*
X002073Y005805D01*
X002073Y005830D01*
X001523Y005830D01*
X001523Y005870D01*
X002073Y005870D01*
X002073Y005895D01*
X002059Y005983D01*
X002031Y006069D01*
X001991Y006149D01*
X001938Y006221D01*
X001875Y006285D01*
X001802Y006338D01*
X001781Y006348D01*
X001826Y006367D01*
X001986Y006527D01*
X002073Y006737D01*
X002073Y006963D01*
X001986Y007173D01*
X001826Y007333D01*
X001617Y007420D01*
X001390Y007420D01*
X001180Y007333D01*
X001020Y007173D01*
X000933Y006963D01*
X000933Y006737D01*
X001020Y006527D01*
X001180Y006367D01*
X001225Y006348D01*
X001204Y006338D01*
X001132Y006285D01*
X001068Y006221D01*
X001016Y006149D01*
X000975Y006069D01*
X000947Y005983D01*
X000933Y005895D01*
X000933Y005870D01*
X001483Y005870D01*
X001483Y005830D01*
X000933Y005830D01*
X000933Y005805D01*
X000947Y005717D01*
X000975Y005631D01*
X001016Y005551D01*
X001068Y005479D01*
X001132Y005415D01*
X001204Y005362D01*
X001225Y005352D01*
X001180Y005333D01*
X001020Y005173D01*
X000933Y004963D01*
X000933Y004737D01*
X001020Y004527D01*
X001127Y004420D01*
X001050Y004420D01*
X000933Y004303D01*
X000933Y003397D01*
X001050Y003280D01*
X001956Y003280D01*
X002073Y003397D01*
X002073Y003499D01*
X002199Y003499D01*
X002199Y003401D01*
X002316Y003284D01*
X003190Y003284D01*
X003201Y003295D01*
X003214Y003282D01*
X004245Y003282D01*
X004363Y003399D01*
X004363Y003587D02*
X004703Y003587D01*
X004703Y003746D02*
X004363Y003746D01*
X004363Y003904D02*
X004703Y003904D01*
X004703Y004063D02*
X004363Y004063D01*
X004363Y004221D02*
X004703Y004221D01*
X004703Y004380D02*
X004343Y004380D01*
X004363Y004538D02*
X004703Y004538D01*
X004703Y004697D02*
X004363Y004697D01*
X004319Y004855D02*
X004703Y004855D01*
X004746Y005014D02*
X004363Y005014D01*
X004363Y005172D02*
X004901Y005172D01*
X005059Y005331D02*
X004333Y005331D01*
X004030Y005489D02*
X006543Y005489D01*
X006543Y005648D02*
X004304Y005648D01*
X004319Y005806D02*
X006559Y005806D01*
X006717Y005965D02*
X004319Y005965D01*
X004319Y006123D02*
X007852Y006123D01*
X008010Y006282D02*
X004319Y006282D01*
X004319Y006440D02*
X008169Y006440D01*
X008203Y006599D02*
X004258Y006599D01*
X003351Y006599D02*
X003156Y006599D01*
X003140Y006614D02*
X003094Y006641D01*
X003043Y006654D01*
X002780Y006654D01*
X002780Y006177D01*
X003217Y006177D01*
X003217Y006481D01*
X003203Y006532D01*
X003177Y006577D01*
X003140Y006614D01*
X003217Y006440D02*
X003289Y006440D01*
X003289Y006282D02*
X003217Y006282D01*
X003289Y006123D02*
X002780Y006123D01*
X002780Y006177D02*
X002780Y006023D01*
X003217Y006023D01*
X003217Y005719D01*
X003203Y005668D01*
X003177Y005623D01*
X003140Y005586D01*
X003094Y005559D01*
X003043Y005546D01*
X002780Y005546D01*
X002780Y006023D01*
X002625Y006023D01*
X002625Y005546D01*
X002361Y005546D01*
X002310Y005559D01*
X002264Y005586D01*
X002227Y005623D01*
X002201Y005668D01*
X002187Y005719D01*
X002187Y006023D01*
X002625Y006023D01*
X002625Y006177D01*
X002187Y006177D01*
X002187Y006481D01*
X002201Y006532D01*
X002227Y006577D01*
X002264Y006614D01*
X002310Y006641D01*
X002361Y006654D01*
X002625Y006654D01*
X002625Y006177D01*
X002780Y006177D01*
X002780Y006282D02*
X002625Y006282D01*
X002625Y006440D02*
X002780Y006440D01*
X002780Y006599D02*
X002625Y006599D01*
X002248Y006599D02*
X002016Y006599D01*
X002073Y006757D02*
X008203Y006757D01*
X008203Y006916D02*
X002073Y006916D01*
X002027Y007074D02*
X008203Y007074D01*
X008203Y007233D02*
X006036Y007233D01*
X006195Y007391D02*
X008203Y007391D01*
X008203Y007550D02*
X006213Y007550D01*
X006213Y007708D02*
X008203Y007708D01*
X008203Y007867D02*
X006194Y007867D01*
X006297Y008025D02*
X008203Y008025D01*
X008203Y008184D02*
X006303Y008184D01*
X006419Y008342D02*
X007238Y008342D01*
X007153Y008501D02*
X006578Y008501D01*
X006736Y008659D02*
X007153Y008659D01*
X007153Y008818D02*
X006895Y008818D01*
X007053Y008976D02*
X007153Y008976D01*
X007212Y009135D02*
X007245Y009135D01*
X007303Y009293D02*
X008703Y009293D01*
X008721Y009452D02*
X007303Y009452D01*
X007437Y009610D02*
X008839Y009610D01*
X008997Y009769D02*
X007596Y009769D01*
X007754Y009927D02*
X009156Y009927D01*
X009149Y010086D02*
X009293Y010086D01*
X008948Y010720D02*
X000753Y010720D01*
X000753Y010878D02*
X009107Y010878D01*
X009265Y011037D02*
X000753Y011037D01*
X000753Y011195D02*
X009718Y011195D01*
X009832Y011354D02*
X000753Y011354D01*
X000753Y011512D02*
X009991Y011512D01*
X009974Y011671D02*
X010149Y011671D01*
X010133Y011829D02*
X010308Y011829D01*
X010213Y011988D02*
X010433Y011988D01*
X010433Y012146D02*
X010223Y012146D01*
X010382Y012305D02*
X010433Y012305D01*
X010540Y012463D02*
X010560Y012463D01*
X010009Y012780D02*
X006129Y012780D01*
X006076Y012833D02*
X005867Y012920D01*
X005640Y012920D01*
X005430Y012833D01*
X005270Y012673D01*
X005253Y012632D01*
X005236Y012673D01*
X005076Y012833D01*
X004867Y012920D01*
X004640Y012920D01*
X004430Y012833D01*
X004270Y012673D01*
X004251Y012628D01*
X004241Y012649D01*
X004188Y012721D01*
X004125Y012785D01*
X004052Y012838D01*
X003972Y012878D01*
X003887Y012906D01*
X003798Y012920D01*
X003773Y012920D01*
X003773Y012370D01*
X003733Y012370D01*
X003733Y012330D01*
X003183Y012330D01*
X003183Y012305D01*
X003197Y012217D01*
X003225Y012131D01*
X003266Y012051D01*
X003318Y011979D01*
X003382Y011915D01*
X003454Y011862D01*
X003534Y011822D01*
X003620Y011794D01*
X003708Y011780D01*
X003733Y011780D01*
X003733Y012330D01*
X003773Y012330D01*
X003773Y011780D01*
X003798Y011780D01*
X003887Y011794D01*
X003972Y011822D01*
X004052Y011862D01*
X004125Y011915D01*
X004188Y011979D01*
X004241Y012051D01*
X004251Y012072D01*
X004270Y012027D01*
X004430Y011867D01*
X004640Y011780D01*
X004867Y011780D01*
X005076Y011867D01*
X005236Y012027D01*
X005253Y012068D01*
X005270Y012027D01*
X005430Y011867D01*
X005640Y011780D01*
X005867Y011780D01*
X006076Y011867D01*
X006236Y012027D01*
X006323Y012237D01*
X006323Y012463D01*
X009466Y012463D01*
X009307Y012305D02*
X006323Y012305D01*
X006323Y012463D02*
X006236Y012673D01*
X006076Y012833D01*
X006258Y012622D02*
X009850Y012622D01*
X010167Y012939D02*
X002559Y012939D01*
X002494Y013095D02*
X002248Y013341D01*
X001927Y013474D01*
X001579Y013474D01*
X001258Y013341D01*
X001013Y013095D01*
X000880Y012774D01*
X000880Y012426D01*
X001013Y012105D01*
X001258Y011859D01*
X001579Y011726D01*
X001927Y011726D01*
X002248Y011859D01*
X002494Y012105D01*
X002627Y012426D01*
X002627Y012774D01*
X002494Y013095D01*
X002492Y013097D02*
X010326Y013097D01*
X011430Y013097D02*
X019765Y013097D01*
X019763Y013095D02*
X019630Y012774D01*
X019630Y012426D01*
X019763Y012105D01*
X020008Y011859D01*
X020329Y011726D01*
X020677Y011726D01*
X020998Y011859D01*
X021244Y012105D01*
X021377Y012426D01*
X021377Y012774D01*
X021244Y013095D01*
X020998Y013341D01*
X020677Y013474D01*
X020329Y013474D01*
X020008Y013341D01*
X019763Y013095D01*
X019698Y012939D02*
X011589Y012939D01*
X011747Y012780D02*
X019632Y012780D01*
X019630Y012622D02*
X013505Y012622D01*
X013573Y012463D02*
X019630Y012463D01*
X019680Y012305D02*
X013723Y012305D01*
X013881Y012146D02*
X019746Y012146D01*
X019880Y011988D02*
X014021Y011988D01*
X014053Y011829D02*
X020081Y011829D01*
X020925Y011829D02*
X021503Y011829D01*
X021503Y011671D02*
X014053Y011671D01*
X014053Y011512D02*
X021503Y011512D01*
X021503Y011354D02*
X014053Y011354D01*
X014053Y011195D02*
X021503Y011195D01*
X021503Y011037D02*
X014053Y011037D01*
X014053Y010878D02*
X021503Y010878D01*
X021503Y010720D02*
X014053Y010720D01*
X014053Y010561D02*
X020408Y010561D01*
X020430Y010583D02*
X020270Y010423D01*
X020183Y010213D01*
X020183Y009987D01*
X020270Y009777D01*
X020430Y009617D01*
X020475Y009598D01*
X020454Y009588D01*
X020382Y009535D01*
X020318Y009471D01*
X020266Y009399D01*
X020225Y009319D01*
X020197Y009233D01*
X020183Y009145D01*
X020183Y009120D01*
X020733Y009120D01*
X020733Y009080D01*
X020183Y009080D01*
X020183Y009055D01*
X020197Y008967D01*
X020225Y008881D01*
X020266Y008801D01*
X020318Y008729D01*
X020382Y008665D01*
X020454Y008612D01*
X020534Y008572D01*
X020620Y008544D01*
X020708Y008530D01*
X020733Y008530D01*
X020733Y009080D01*
X020773Y009080D01*
X020773Y008530D01*
X020798Y008530D01*
X020887Y008544D01*
X020972Y008572D01*
X021052Y008612D01*
X021125Y008665D01*
X021188Y008729D01*
X021241Y008801D01*
X021281Y008881D01*
X021309Y008967D01*
X021323Y009055D01*
X021323Y009080D01*
X020773Y009080D01*
X020773Y009120D01*
X021323Y009120D01*
X021323Y009145D01*
X021309Y009233D01*
X021281Y009319D01*
X021241Y009399D01*
X021188Y009471D01*
X021125Y009535D01*
X021052Y009588D01*
X021031Y009598D01*
X021076Y009617D01*
X021236Y009777D01*
X021323Y009987D01*
X021323Y010213D01*
X021236Y010423D01*
X021076Y010583D01*
X020867Y010670D01*
X020640Y010670D01*
X020430Y010583D01*
X020262Y010403D02*
X013980Y010403D01*
X013821Y010244D02*
X020196Y010244D01*
X020183Y010086D02*
X013663Y010086D01*
X013504Y009927D02*
X020208Y009927D01*
X020279Y009769D02*
X013346Y009769D01*
X013187Y009610D02*
X020447Y009610D01*
X020304Y009452D02*
X013053Y009452D01*
X013053Y009293D02*
X020217Y009293D01*
X020183Y009135D02*
X013053Y009135D01*
X013053Y008976D02*
X020196Y008976D01*
X020257Y008818D02*
X013053Y008818D01*
X012986Y008659D02*
X020390Y008659D01*
X020733Y008659D02*
X020773Y008659D01*
X021116Y008659D02*
X021503Y008659D01*
X021503Y008501D02*
X012963Y008501D01*
X012896Y008342D02*
X021503Y008342D01*
X021503Y008184D02*
X012820Y008184D01*
X012963Y008025D02*
X021503Y008025D01*
X021503Y007867D02*
X020996Y007867D01*
X021076Y007833D02*
X020867Y007920D01*
X020640Y007920D01*
X020430Y007833D01*
X020270Y007673D01*
X020183Y007463D01*
X020183Y007237D01*
X020270Y007027D01*
X020430Y006867D01*
X020475Y006848D01*
X020454Y006838D01*
X020382Y006785D01*
X020318Y006721D01*
X020266Y006649D01*
X020225Y006569D01*
X020197Y006483D01*
X020183Y006395D01*
X020183Y006370D01*
X020733Y006370D01*
X020733Y006330D01*
X020183Y006330D01*
X020183Y006305D01*
X020197Y006217D01*
X020225Y006131D01*
X020266Y006051D01*
X020318Y005979D01*
X020382Y005915D01*
X020454Y005862D01*
X020534Y005822D01*
X020620Y005794D01*
X020708Y005780D01*
X020733Y005780D01*
X020733Y006330D01*
X020773Y006330D01*
X020773Y005780D01*
X020798Y005780D01*
X020887Y005794D01*
X020972Y005822D01*
X021052Y005862D01*
X021125Y005915D01*
X021188Y005979D01*
X021241Y006051D01*
X021281Y006131D01*
X021309Y006217D01*
X021323Y006305D01*
X021323Y006330D01*
X020773Y006330D01*
X020773Y006370D01*
X021323Y006370D01*
X021323Y006395D01*
X021309Y006483D01*
X021281Y006569D01*
X021241Y006649D01*
X021188Y006721D01*
X021125Y006785D01*
X021052Y006838D01*
X021031Y006848D01*
X021076Y006867D01*
X021236Y007027D01*
X021323Y007237D01*
X021323Y007463D01*
X021236Y007673D01*
X021076Y007833D01*
X021201Y007708D02*
X021503Y007708D01*
X021503Y007550D02*
X021288Y007550D01*
X021323Y007391D02*
X021503Y007391D01*
X021503Y007233D02*
X021322Y007233D01*
X021256Y007074D02*
X021503Y007074D01*
X021503Y006916D02*
X021125Y006916D01*
X021152Y006757D02*
X021503Y006757D01*
X021503Y006599D02*
X021266Y006599D01*
X021316Y006440D02*
X021503Y006440D01*
X021503Y006282D02*
X021319Y006282D01*
X021277Y006123D02*
X021503Y006123D01*
X021503Y005965D02*
X021174Y005965D01*
X020924Y005806D02*
X021503Y005806D01*
X021503Y005648D02*
X013975Y005648D01*
X014053Y005806D02*
X020583Y005806D01*
X020733Y005806D02*
X020773Y005806D01*
X020773Y005965D02*
X020733Y005965D01*
X020733Y006123D02*
X020773Y006123D01*
X020773Y006282D02*
X020733Y006282D01*
X020333Y005965D02*
X014053Y005965D01*
X014053Y006123D02*
X020229Y006123D01*
X020187Y006282D02*
X014053Y006282D01*
X014053Y006440D02*
X020190Y006440D01*
X020240Y006599D02*
X014053Y006599D01*
X014013Y006757D02*
X020354Y006757D01*
X020382Y006916D02*
X013862Y006916D01*
X013923Y006854D02*
X013923Y006854D01*
X013703Y007074D02*
X020251Y007074D01*
X020185Y007233D02*
X013545Y007233D01*
X013386Y007391D02*
X020183Y007391D01*
X020219Y007550D02*
X013228Y007550D01*
X013069Y007708D02*
X020305Y007708D01*
X020511Y007867D02*
X012963Y007867D01*
X010739Y006440D02*
X008803Y006440D01*
X008803Y006599D02*
X010580Y006599D01*
X010422Y006757D02*
X008803Y006757D01*
X008803Y006916D02*
X010263Y006916D01*
X010105Y007074D02*
X008803Y007074D01*
X008803Y007233D02*
X009946Y007233D01*
X009788Y007391D02*
X008803Y007391D01*
X008803Y007550D02*
X009629Y007550D01*
X009471Y007708D02*
X008803Y007708D01*
X008803Y007867D02*
X009312Y007867D01*
X009210Y008025D02*
X008803Y008025D01*
X008803Y008184D02*
X009203Y008184D01*
X006680Y009452D02*
X000753Y009452D01*
X000753Y009610D02*
X006703Y009610D01*
X006748Y009769D02*
X000753Y009769D01*
X000753Y009927D02*
X006906Y009927D01*
X007064Y010086D02*
X000753Y010086D01*
X000753Y010244D02*
X007223Y010244D01*
X007381Y010403D02*
X000753Y010403D01*
X000753Y010561D02*
X007540Y010561D01*
X006522Y009293D02*
X000753Y009293D01*
X000753Y009135D02*
X006363Y009135D01*
X006205Y008976D02*
X000753Y008976D01*
X000753Y008818D02*
X006046Y008818D01*
X005888Y008659D02*
X000753Y008659D01*
X000753Y008501D02*
X005741Y008501D01*
X005703Y008342D02*
X000753Y008342D01*
X000753Y008184D02*
X005662Y008184D01*
X005504Y008025D02*
X000753Y008025D01*
X000753Y007867D02*
X005369Y007867D01*
X005293Y007708D02*
X000753Y007708D01*
X000753Y007550D02*
X005293Y007550D01*
X005312Y007391D02*
X001687Y007391D01*
X001927Y007233D02*
X005470Y007233D01*
X007289Y005965D02*
X007693Y005965D01*
X008225Y005648D02*
X011531Y005648D01*
X011373Y005806D02*
X008383Y005806D01*
X008542Y005965D02*
X011214Y005965D01*
X011056Y006123D02*
X008700Y006123D01*
X008673Y006096D02*
X008673Y006096D01*
X008800Y006282D02*
X010897Y006282D01*
X011690Y005489D02*
X008066Y005489D01*
X007503Y004965D02*
X007503Y004540D01*
X007503Y004965D01*
X007503Y004965D01*
X007503Y004965D01*
X007503Y004855D02*
X007503Y004855D01*
X007503Y004697D02*
X007503Y004697D01*
X007680Y004540D02*
X007703Y004546D01*
X007703Y004300D01*
X007464Y004540D01*
X007503Y004540D01*
X007680Y004540D01*
X007703Y004538D02*
X007466Y004538D01*
X007624Y004380D02*
X007703Y004380D01*
X007158Y004697D02*
X006410Y004697D01*
X006410Y004600D02*
X005777Y004600D01*
X005777Y004600D01*
X006410Y004600D01*
X006410Y004538D02*
X007041Y004538D01*
X007153Y004855D02*
X006366Y004855D01*
X006410Y005014D02*
X007153Y005014D01*
X006781Y005172D02*
X006410Y005172D01*
X006380Y005331D02*
X006622Y005331D01*
X003430Y005489D02*
X001945Y005489D01*
X002037Y005648D02*
X002213Y005648D01*
X002187Y005806D02*
X002073Y005806D01*
X002062Y005965D02*
X002187Y005965D01*
X002004Y006123D02*
X002625Y006123D01*
X002625Y005965D02*
X002780Y005965D01*
X002780Y005806D02*
X002625Y005806D01*
X002625Y005648D02*
X002780Y005648D01*
X003191Y005648D02*
X003305Y005648D01*
X003289Y005806D02*
X003217Y005806D01*
X003217Y005965D02*
X003289Y005965D01*
X002187Y006282D02*
X001878Y006282D01*
X001899Y006440D02*
X002187Y006440D01*
X001129Y006282D02*
X000753Y006282D01*
X000753Y006440D02*
X001107Y006440D01*
X000990Y006599D02*
X000753Y006599D01*
X000753Y006757D02*
X000933Y006757D01*
X000933Y006916D02*
X000753Y006916D01*
X000753Y007074D02*
X000979Y007074D01*
X001080Y007233D02*
X000753Y007233D01*
X000753Y007391D02*
X001320Y007391D01*
X001003Y006123D02*
X000753Y006123D01*
X000753Y005965D02*
X000944Y005965D01*
X000933Y005806D02*
X000753Y005806D01*
X000753Y005648D02*
X000970Y005648D01*
X001061Y005489D02*
X000753Y005489D01*
X000753Y005331D02*
X001178Y005331D01*
X001020Y005172D02*
X000753Y005172D01*
X000753Y005014D02*
X000954Y005014D01*
X000933Y004855D02*
X000753Y004855D01*
X000753Y004697D02*
X000950Y004697D01*
X001015Y004538D02*
X000753Y004538D01*
X000753Y004380D02*
X001010Y004380D01*
X000933Y004221D02*
X000753Y004221D01*
X000753Y004063D02*
X000933Y004063D01*
X000933Y003904D02*
X000753Y003904D01*
X000753Y003746D02*
X000933Y003746D01*
X000933Y003587D02*
X000753Y003587D01*
X000753Y003429D02*
X000933Y003429D01*
X002073Y003429D02*
X002199Y003429D01*
X001237Y002319D02*
X000753Y002319D01*
X000753Y002161D02*
X001078Y002161D01*
X000974Y002002D02*
X000753Y002002D01*
X000753Y001844D02*
X000908Y001844D01*
X000880Y001685D02*
X000753Y001685D01*
X000758Y001527D02*
X000880Y001527D01*
X000904Y001368D02*
X000783Y001368D01*
X000834Y001210D02*
X000969Y001210D01*
X000918Y001051D02*
X001067Y001051D01*
X002281Y000893D02*
X019975Y000893D01*
X019817Y001051D02*
X002440Y001051D01*
X002230Y005331D02*
X001829Y005331D01*
X010399Y010878D02*
X010433Y010878D01*
X010433Y010864D02*
X010767Y010530D01*
X010983Y010530D01*
X010983Y011080D01*
X010433Y011080D01*
X010433Y010864D01*
X010303Y010974D02*
X010303Y010976D01*
X010447Y011120D01*
X010983Y011120D01*
X010983Y011080D01*
X011023Y011080D01*
X011023Y010530D01*
X011239Y010530D01*
X011503Y010794D01*
X011767Y010530D01*
X012239Y010530D01*
X012503Y010794D01*
X012638Y010659D01*
X011991Y010012D01*
X011944Y010060D01*
X011563Y010060D01*
X011303Y009800D01*
X011303Y009910D01*
X011258Y010020D01*
X010303Y010974D01*
X010364Y011037D02*
X010433Y011037D01*
X010558Y010720D02*
X010578Y010720D01*
X010716Y010561D02*
X010736Y010561D01*
X010875Y010403D02*
X012381Y010403D01*
X012270Y010561D02*
X012540Y010561D01*
X012578Y010720D02*
X012429Y010720D01*
X012223Y010244D02*
X011033Y010244D01*
X011192Y010086D02*
X012064Y010086D01*
X011736Y010561D02*
X011270Y010561D01*
X011429Y010720D02*
X011578Y010720D01*
X011023Y010720D02*
X010983Y010720D01*
X010983Y010878D02*
X011023Y010878D01*
X011023Y011037D02*
X010983Y011037D01*
X010983Y010561D02*
X011023Y010561D01*
X011296Y009927D02*
X011430Y009927D01*
X009532Y011671D02*
X000753Y011671D01*
X000753Y011829D02*
X001331Y011829D01*
X001130Y011988D02*
X000753Y011988D01*
X000753Y012146D02*
X000996Y012146D01*
X000930Y012305D02*
X000753Y012305D01*
X000753Y012463D02*
X000880Y012463D01*
X000880Y012622D02*
X000755Y012622D01*
X000772Y012780D02*
X000882Y012780D01*
X000815Y012939D02*
X000948Y012939D01*
X000888Y013097D02*
X001015Y013097D01*
X000998Y013256D02*
X001173Y013256D01*
X001176Y013414D02*
X001435Y013414D01*
X001531Y013573D02*
X020725Y013573D01*
X020821Y013414D02*
X021080Y013414D01*
X021083Y013256D02*
X021258Y013256D01*
X021242Y013097D02*
X021368Y013097D01*
X021309Y012939D02*
X021442Y012939D01*
X021485Y012780D02*
X021374Y012780D01*
X021377Y012622D02*
X021502Y012622D01*
X021503Y012463D02*
X021377Y012463D01*
X021327Y012305D02*
X021503Y012305D01*
X021503Y012146D02*
X021261Y012146D01*
X021126Y011988D02*
X021503Y011988D01*
X019923Y013256D02*
X002333Y013256D01*
X002071Y013414D02*
X020185Y013414D01*
X021098Y010561D02*
X021503Y010561D01*
X021503Y010403D02*
X021245Y010403D01*
X021311Y010244D02*
X021503Y010244D01*
X021503Y010086D02*
X021323Y010086D01*
X021299Y009927D02*
X021503Y009927D01*
X021503Y009769D02*
X021228Y009769D01*
X021060Y009610D02*
X021503Y009610D01*
X021503Y009452D02*
X021202Y009452D01*
X021290Y009293D02*
X021503Y009293D01*
X021503Y009135D02*
X021323Y009135D01*
X021311Y008976D02*
X021503Y008976D01*
X021503Y008818D02*
X021249Y008818D01*
X020773Y008818D02*
X020733Y008818D01*
X020733Y008976D02*
X020773Y008976D01*
X021503Y005489D02*
X013816Y005489D01*
X013658Y005331D02*
X021503Y005331D01*
X021503Y005172D02*
X013499Y005172D01*
X013341Y005014D02*
X020361Y005014D01*
X020430Y005083D02*
X020270Y004923D01*
X020183Y004713D01*
X020183Y004487D01*
X020270Y004277D01*
X020430Y004117D01*
X020475Y004098D01*
X020454Y004088D01*
X020382Y004035D01*
X020318Y003971D01*
X020266Y003899D01*
X020225Y003819D01*
X020197Y003733D01*
X020183Y003645D01*
X020183Y003620D01*
X020733Y003620D01*
X020733Y003580D01*
X020183Y003580D01*
X020183Y003555D01*
X020197Y003467D01*
X020225Y003381D01*
X020266Y003301D01*
X020318Y003229D01*
X020382Y003165D01*
X020454Y003112D01*
X020534Y003072D01*
X020620Y003044D01*
X020708Y003030D01*
X020733Y003030D01*
X020733Y003580D01*
X020773Y003580D01*
X020773Y003030D01*
X020798Y003030D01*
X020887Y003044D01*
X020972Y003072D01*
X021052Y003112D01*
X021125Y003165D01*
X021188Y003229D01*
X021241Y003301D01*
X021281Y003381D01*
X021309Y003467D01*
X021323Y003555D01*
X021323Y003580D01*
X020773Y003580D01*
X020773Y003620D01*
X021323Y003620D01*
X021323Y003645D01*
X021309Y003733D01*
X021281Y003819D01*
X021241Y003899D01*
X021188Y003971D01*
X021125Y004035D01*
X021052Y004088D01*
X021031Y004098D01*
X021076Y004117D01*
X021236Y004277D01*
X021323Y004487D01*
X021323Y004713D01*
X021236Y004923D01*
X021076Y005083D01*
X020867Y005170D01*
X020640Y005170D01*
X020430Y005083D01*
X020242Y004855D02*
X013182Y004855D01*
X012324Y004855D02*
X011853Y004855D01*
X011853Y004697D02*
X020183Y004697D01*
X020183Y004538D02*
X011803Y004538D01*
X011803Y004380D02*
X020228Y004380D01*
X020326Y004221D02*
X011803Y004221D01*
X011803Y004063D02*
X020420Y004063D01*
X020270Y003904D02*
X011803Y003904D01*
X011803Y003746D02*
X020201Y003746D01*
X020210Y003429D02*
X012045Y003429D01*
X012053Y003270D02*
X020288Y003270D01*
X020456Y003112D02*
X012053Y003112D01*
X012053Y002953D02*
X021503Y002953D01*
X021503Y002795D02*
X012053Y002795D01*
X012053Y002636D02*
X021503Y002636D01*
X021503Y003112D02*
X021050Y003112D01*
X020773Y003112D02*
X020733Y003112D01*
X020733Y003270D02*
X020773Y003270D01*
X020773Y003429D02*
X020733Y003429D01*
X020733Y003587D02*
X011940Y003587D01*
X011853Y005014D02*
X012165Y005014D01*
X012007Y005172D02*
X011853Y005172D01*
X011848Y005331D02*
X011796Y005331D01*
X020773Y003587D02*
X021503Y003587D01*
X021503Y003429D02*
X021297Y003429D01*
X021218Y003270D02*
X021503Y003270D01*
X021503Y003746D02*
X021305Y003746D01*
X021237Y003904D02*
X021503Y003904D01*
X021503Y004063D02*
X021086Y004063D01*
X021180Y004221D02*
X021503Y004221D01*
X021503Y004380D02*
X021279Y004380D01*
X021323Y004538D02*
X021503Y004538D01*
X021503Y004697D02*
X021323Y004697D01*
X021265Y004855D02*
X021503Y004855D01*
X021503Y005014D02*
X021146Y005014D01*
X012502Y012622D02*
X012288Y012622D01*
X009374Y011829D02*
X005985Y011829D01*
X006197Y011988D02*
X009293Y011988D01*
X009293Y012146D02*
X006286Y012146D01*
X005521Y011829D02*
X004985Y011829D01*
X005197Y011988D02*
X005310Y011988D01*
X004521Y011829D02*
X003986Y011829D01*
X003773Y011829D02*
X003733Y011829D01*
X003733Y011988D02*
X003773Y011988D01*
X003773Y012146D02*
X003733Y012146D01*
X003733Y012305D02*
X003773Y012305D01*
X003733Y012370D02*
X003183Y012370D01*
X003183Y012395D01*
X003197Y012483D01*
X003225Y012569D01*
X003266Y012649D01*
X003318Y012721D01*
X003382Y012785D01*
X003454Y012838D01*
X003534Y012878D01*
X003620Y012906D01*
X003708Y012920D01*
X003733Y012920D01*
X003733Y012370D01*
X003733Y012463D02*
X003773Y012463D01*
X003773Y012622D02*
X003733Y012622D01*
X003733Y012780D02*
X003773Y012780D01*
X003377Y012780D02*
X002624Y012780D01*
X002627Y012622D02*
X003252Y012622D01*
X003194Y012463D02*
X002627Y012463D01*
X002577Y012305D02*
X003183Y012305D01*
X003220Y012146D02*
X002511Y012146D01*
X002376Y011988D02*
X003312Y011988D01*
X003520Y011829D02*
X002175Y011829D01*
X004194Y011988D02*
X004310Y011988D01*
X004377Y012780D02*
X004129Y012780D01*
X005129Y012780D02*
X005377Y012780D01*
M02*
