G75*
%MOIN*%
%OFA0B0*%
%FSLAX24Y24*%
%IPPOS*%
%LPD*%
%AMOC8*
5,1,8,0,0,1.08239X$1,22.5*
%
%ADD10C,0.0000*%
D10*
X001753Y000100D02*
X020503Y000100D01*
X020109Y001600D02*
X020111Y001639D01*
X020117Y001678D01*
X020127Y001716D01*
X020140Y001753D01*
X020157Y001788D01*
X020177Y001822D01*
X020201Y001853D01*
X020228Y001882D01*
X020257Y001908D01*
X020289Y001931D01*
X020323Y001951D01*
X020359Y001967D01*
X020396Y001979D01*
X020435Y001988D01*
X020474Y001993D01*
X020513Y001994D01*
X020552Y001991D01*
X020591Y001984D01*
X020628Y001973D01*
X020665Y001959D01*
X020700Y001941D01*
X020733Y001920D01*
X020764Y001895D01*
X020792Y001868D01*
X020817Y001838D01*
X020839Y001805D01*
X020858Y001771D01*
X020873Y001735D01*
X020885Y001697D01*
X020893Y001659D01*
X020897Y001620D01*
X020897Y001580D01*
X020893Y001541D01*
X020885Y001503D01*
X020873Y001465D01*
X020858Y001429D01*
X020839Y001395D01*
X020817Y001362D01*
X020792Y001332D01*
X020764Y001305D01*
X020733Y001280D01*
X020700Y001259D01*
X020665Y001241D01*
X020628Y001227D01*
X020591Y001216D01*
X020552Y001209D01*
X020513Y001206D01*
X020474Y001207D01*
X020435Y001212D01*
X020396Y001221D01*
X020359Y001233D01*
X020323Y001249D01*
X020289Y001269D01*
X020257Y001292D01*
X020228Y001318D01*
X020201Y001347D01*
X020177Y001378D01*
X020157Y001412D01*
X020140Y001447D01*
X020127Y001484D01*
X020117Y001522D01*
X020111Y001561D01*
X020109Y001600D01*
X020503Y000100D02*
X020579Y000102D01*
X020655Y000108D01*
X020730Y000117D01*
X020805Y000131D01*
X020879Y000148D01*
X020952Y000169D01*
X021024Y000193D01*
X021095Y000222D01*
X021164Y000253D01*
X021231Y000288D01*
X021296Y000327D01*
X021360Y000369D01*
X021421Y000414D01*
X021480Y000462D01*
X021536Y000513D01*
X021590Y000567D01*
X021641Y000623D01*
X021689Y000682D01*
X021734Y000743D01*
X021776Y000807D01*
X021815Y000872D01*
X021850Y000939D01*
X021881Y001008D01*
X021910Y001079D01*
X021934Y001151D01*
X021955Y001224D01*
X021972Y001298D01*
X021986Y001373D01*
X021995Y001448D01*
X022001Y001524D01*
X022003Y001600D01*
X022003Y012600D01*
X022001Y012676D01*
X021995Y012751D01*
X021986Y012827D01*
X021972Y012901D01*
X021955Y012975D01*
X021934Y013048D01*
X021910Y013120D01*
X021882Y013190D01*
X021850Y013259D01*
X021815Y013326D01*
X021777Y013391D01*
X021735Y013455D01*
X021690Y013516D01*
X021642Y013574D01*
X021591Y013631D01*
X021538Y013684D01*
X021481Y013735D01*
X021423Y013783D01*
X021362Y013828D01*
X021298Y013870D01*
X021233Y013908D01*
X021166Y013943D01*
X021097Y013975D01*
X021027Y014003D01*
X020955Y014027D01*
X020882Y014048D01*
X020808Y014065D01*
X020734Y014079D01*
X020658Y014088D01*
X020583Y014094D01*
X020507Y014096D01*
X001770Y014096D01*
X001359Y012600D02*
X001361Y012639D01*
X001367Y012678D01*
X001377Y012716D01*
X001390Y012753D01*
X001407Y012788D01*
X001427Y012822D01*
X001451Y012853D01*
X001478Y012882D01*
X001507Y012908D01*
X001539Y012931D01*
X001573Y012951D01*
X001609Y012967D01*
X001646Y012979D01*
X001685Y012988D01*
X001724Y012993D01*
X001763Y012994D01*
X001802Y012991D01*
X001841Y012984D01*
X001878Y012973D01*
X001915Y012959D01*
X001950Y012941D01*
X001983Y012920D01*
X002014Y012895D01*
X002042Y012868D01*
X002067Y012838D01*
X002089Y012805D01*
X002108Y012771D01*
X002123Y012735D01*
X002135Y012697D01*
X002143Y012659D01*
X002147Y012620D01*
X002147Y012580D01*
X002143Y012541D01*
X002135Y012503D01*
X002123Y012465D01*
X002108Y012429D01*
X002089Y012395D01*
X002067Y012362D01*
X002042Y012332D01*
X002014Y012305D01*
X001983Y012280D01*
X001950Y012259D01*
X001915Y012241D01*
X001878Y012227D01*
X001841Y012216D01*
X001802Y012209D01*
X001763Y012206D01*
X001724Y012207D01*
X001685Y012212D01*
X001646Y012221D01*
X001609Y012233D01*
X001573Y012249D01*
X001539Y012269D01*
X001507Y012292D01*
X001478Y012318D01*
X001451Y012347D01*
X001427Y012378D01*
X001407Y012412D01*
X001390Y012447D01*
X001377Y012484D01*
X001367Y012522D01*
X001361Y012561D01*
X001359Y012600D01*
X000253Y012579D02*
X000255Y012656D01*
X000261Y012732D01*
X000270Y012809D01*
X000284Y012884D01*
X000301Y012959D01*
X000323Y013033D01*
X000347Y013106D01*
X000376Y013177D01*
X000408Y013247D01*
X000444Y013315D01*
X000483Y013381D01*
X000525Y013446D01*
X000570Y013508D01*
X000619Y013567D01*
X000670Y013624D01*
X000725Y013679D01*
X000782Y013730D01*
X000841Y013779D01*
X000903Y013824D01*
X000968Y013866D01*
X001034Y013905D01*
X001102Y013941D01*
X001172Y013973D01*
X001243Y014002D01*
X001316Y014026D01*
X001390Y014048D01*
X001465Y014065D01*
X001540Y014079D01*
X001617Y014088D01*
X001693Y014094D01*
X001770Y014096D01*
X000253Y012579D02*
X000253Y001600D01*
X001359Y001600D02*
X001361Y001639D01*
X001367Y001678D01*
X001377Y001716D01*
X001390Y001753D01*
X001407Y001788D01*
X001427Y001822D01*
X001451Y001853D01*
X001478Y001882D01*
X001507Y001908D01*
X001539Y001931D01*
X001573Y001951D01*
X001609Y001967D01*
X001646Y001979D01*
X001685Y001988D01*
X001724Y001993D01*
X001763Y001994D01*
X001802Y001991D01*
X001841Y001984D01*
X001878Y001973D01*
X001915Y001959D01*
X001950Y001941D01*
X001983Y001920D01*
X002014Y001895D01*
X002042Y001868D01*
X002067Y001838D01*
X002089Y001805D01*
X002108Y001771D01*
X002123Y001735D01*
X002135Y001697D01*
X002143Y001659D01*
X002147Y001620D01*
X002147Y001580D01*
X002143Y001541D01*
X002135Y001503D01*
X002123Y001465D01*
X002108Y001429D01*
X002089Y001395D01*
X002067Y001362D01*
X002042Y001332D01*
X002014Y001305D01*
X001983Y001280D01*
X001950Y001259D01*
X001915Y001241D01*
X001878Y001227D01*
X001841Y001216D01*
X001802Y001209D01*
X001763Y001206D01*
X001724Y001207D01*
X001685Y001212D01*
X001646Y001221D01*
X001609Y001233D01*
X001573Y001249D01*
X001539Y001269D01*
X001507Y001292D01*
X001478Y001318D01*
X001451Y001347D01*
X001427Y001378D01*
X001407Y001412D01*
X001390Y001447D01*
X001377Y001484D01*
X001367Y001522D01*
X001361Y001561D01*
X001359Y001600D01*
X000253Y001600D02*
X000255Y001524D01*
X000261Y001448D01*
X000270Y001373D01*
X000284Y001298D01*
X000301Y001224D01*
X000322Y001151D01*
X000346Y001079D01*
X000375Y001008D01*
X000406Y000939D01*
X000441Y000872D01*
X000480Y000807D01*
X000522Y000743D01*
X000567Y000682D01*
X000615Y000623D01*
X000666Y000567D01*
X000720Y000513D01*
X000776Y000462D01*
X000835Y000414D01*
X000896Y000369D01*
X000960Y000327D01*
X001025Y000288D01*
X001092Y000253D01*
X001161Y000222D01*
X001232Y000193D01*
X001304Y000169D01*
X001377Y000148D01*
X001451Y000131D01*
X001526Y000117D01*
X001601Y000108D01*
X001677Y000102D01*
X001753Y000100D01*
X020109Y012600D02*
X020111Y012639D01*
X020117Y012678D01*
X020127Y012716D01*
X020140Y012753D01*
X020157Y012788D01*
X020177Y012822D01*
X020201Y012853D01*
X020228Y012882D01*
X020257Y012908D01*
X020289Y012931D01*
X020323Y012951D01*
X020359Y012967D01*
X020396Y012979D01*
X020435Y012988D01*
X020474Y012993D01*
X020513Y012994D01*
X020552Y012991D01*
X020591Y012984D01*
X020628Y012973D01*
X020665Y012959D01*
X020700Y012941D01*
X020733Y012920D01*
X020764Y012895D01*
X020792Y012868D01*
X020817Y012838D01*
X020839Y012805D01*
X020858Y012771D01*
X020873Y012735D01*
X020885Y012697D01*
X020893Y012659D01*
X020897Y012620D01*
X020897Y012580D01*
X020893Y012541D01*
X020885Y012503D01*
X020873Y012465D01*
X020858Y012429D01*
X020839Y012395D01*
X020817Y012362D01*
X020792Y012332D01*
X020764Y012305D01*
X020733Y012280D01*
X020700Y012259D01*
X020665Y012241D01*
X020628Y012227D01*
X020591Y012216D01*
X020552Y012209D01*
X020513Y012206D01*
X020474Y012207D01*
X020435Y012212D01*
X020396Y012221D01*
X020359Y012233D01*
X020323Y012249D01*
X020289Y012269D01*
X020257Y012292D01*
X020228Y012318D01*
X020201Y012347D01*
X020177Y012378D01*
X020157Y012412D01*
X020140Y012447D01*
X020127Y012484D01*
X020117Y012522D01*
X020111Y012561D01*
X020109Y012600D01*
M02*
