G75*
%MOIN*%
%OFA0B0*%
%FSLAX24Y24*%
%IPPOS*%
%LPD*%
%AMOC8*
5,1,8,0,0,1.08239X$1,22.5*
%
%ADD10C,0.0000*%
%ADD11R,0.0600X0.0240*%
%ADD12R,0.0220X0.0500*%
%ADD13R,0.0500X0.0220*%
%ADD14C,0.0740*%
%ADD15R,0.0630X0.0709*%
%ADD16R,0.0300X0.0600*%
%ADD17R,0.0740X0.0740*%
%ADD18OC8,0.0740*%
%ADD19R,0.0709X0.0630*%
%ADD20R,0.0551X0.0472*%
%ADD21R,0.0472X0.0315*%
%ADD22R,0.0480X0.0880*%
%ADD23R,0.1417X0.0866*%
%ADD24R,0.0630X0.0551*%
%ADD25R,0.0276X0.0669*%
%ADD26C,0.0200*%
%ADD27OC8,0.0520*%
%ADD28C,0.0320*%
%ADD29C,0.0160*%
D10*
X001753Y000100D02*
X020503Y000100D01*
X020109Y001600D02*
X020111Y001639D01*
X020117Y001678D01*
X020127Y001716D01*
X020140Y001753D01*
X020157Y001788D01*
X020177Y001822D01*
X020201Y001853D01*
X020228Y001882D01*
X020257Y001908D01*
X020289Y001931D01*
X020323Y001951D01*
X020359Y001967D01*
X020396Y001979D01*
X020435Y001988D01*
X020474Y001993D01*
X020513Y001994D01*
X020552Y001991D01*
X020591Y001984D01*
X020628Y001973D01*
X020665Y001959D01*
X020700Y001941D01*
X020733Y001920D01*
X020764Y001895D01*
X020792Y001868D01*
X020817Y001838D01*
X020839Y001805D01*
X020858Y001771D01*
X020873Y001735D01*
X020885Y001697D01*
X020893Y001659D01*
X020897Y001620D01*
X020897Y001580D01*
X020893Y001541D01*
X020885Y001503D01*
X020873Y001465D01*
X020858Y001429D01*
X020839Y001395D01*
X020817Y001362D01*
X020792Y001332D01*
X020764Y001305D01*
X020733Y001280D01*
X020700Y001259D01*
X020665Y001241D01*
X020628Y001227D01*
X020591Y001216D01*
X020552Y001209D01*
X020513Y001206D01*
X020474Y001207D01*
X020435Y001212D01*
X020396Y001221D01*
X020359Y001233D01*
X020323Y001249D01*
X020289Y001269D01*
X020257Y001292D01*
X020228Y001318D01*
X020201Y001347D01*
X020177Y001378D01*
X020157Y001412D01*
X020140Y001447D01*
X020127Y001484D01*
X020117Y001522D01*
X020111Y001561D01*
X020109Y001600D01*
X020503Y000100D02*
X020579Y000102D01*
X020655Y000108D01*
X020730Y000117D01*
X020805Y000131D01*
X020879Y000148D01*
X020952Y000169D01*
X021024Y000193D01*
X021095Y000222D01*
X021164Y000253D01*
X021231Y000288D01*
X021296Y000327D01*
X021360Y000369D01*
X021421Y000414D01*
X021480Y000462D01*
X021536Y000513D01*
X021590Y000567D01*
X021641Y000623D01*
X021689Y000682D01*
X021734Y000743D01*
X021776Y000807D01*
X021815Y000872D01*
X021850Y000939D01*
X021881Y001008D01*
X021910Y001079D01*
X021934Y001151D01*
X021955Y001224D01*
X021972Y001298D01*
X021986Y001373D01*
X021995Y001448D01*
X022001Y001524D01*
X022003Y001600D01*
X022003Y012600D01*
X022001Y012676D01*
X021995Y012751D01*
X021986Y012827D01*
X021972Y012901D01*
X021955Y012975D01*
X021934Y013048D01*
X021910Y013120D01*
X021882Y013190D01*
X021850Y013259D01*
X021815Y013326D01*
X021777Y013391D01*
X021735Y013455D01*
X021690Y013516D01*
X021642Y013574D01*
X021591Y013631D01*
X021538Y013684D01*
X021481Y013735D01*
X021423Y013783D01*
X021362Y013828D01*
X021298Y013870D01*
X021233Y013908D01*
X021166Y013943D01*
X021097Y013975D01*
X021027Y014003D01*
X020955Y014027D01*
X020882Y014048D01*
X020808Y014065D01*
X020734Y014079D01*
X020658Y014088D01*
X020583Y014094D01*
X020507Y014096D01*
X001770Y014096D01*
X001359Y012600D02*
X001361Y012639D01*
X001367Y012678D01*
X001377Y012716D01*
X001390Y012753D01*
X001407Y012788D01*
X001427Y012822D01*
X001451Y012853D01*
X001478Y012882D01*
X001507Y012908D01*
X001539Y012931D01*
X001573Y012951D01*
X001609Y012967D01*
X001646Y012979D01*
X001685Y012988D01*
X001724Y012993D01*
X001763Y012994D01*
X001802Y012991D01*
X001841Y012984D01*
X001878Y012973D01*
X001915Y012959D01*
X001950Y012941D01*
X001983Y012920D01*
X002014Y012895D01*
X002042Y012868D01*
X002067Y012838D01*
X002089Y012805D01*
X002108Y012771D01*
X002123Y012735D01*
X002135Y012697D01*
X002143Y012659D01*
X002147Y012620D01*
X002147Y012580D01*
X002143Y012541D01*
X002135Y012503D01*
X002123Y012465D01*
X002108Y012429D01*
X002089Y012395D01*
X002067Y012362D01*
X002042Y012332D01*
X002014Y012305D01*
X001983Y012280D01*
X001950Y012259D01*
X001915Y012241D01*
X001878Y012227D01*
X001841Y012216D01*
X001802Y012209D01*
X001763Y012206D01*
X001724Y012207D01*
X001685Y012212D01*
X001646Y012221D01*
X001609Y012233D01*
X001573Y012249D01*
X001539Y012269D01*
X001507Y012292D01*
X001478Y012318D01*
X001451Y012347D01*
X001427Y012378D01*
X001407Y012412D01*
X001390Y012447D01*
X001377Y012484D01*
X001367Y012522D01*
X001361Y012561D01*
X001359Y012600D01*
X000253Y012579D02*
X000255Y012656D01*
X000261Y012732D01*
X000270Y012809D01*
X000284Y012884D01*
X000301Y012959D01*
X000323Y013033D01*
X000347Y013106D01*
X000376Y013177D01*
X000408Y013247D01*
X000444Y013315D01*
X000483Y013381D01*
X000525Y013446D01*
X000570Y013508D01*
X000619Y013567D01*
X000670Y013624D01*
X000725Y013679D01*
X000782Y013730D01*
X000841Y013779D01*
X000903Y013824D01*
X000968Y013866D01*
X001034Y013905D01*
X001102Y013941D01*
X001172Y013973D01*
X001243Y014002D01*
X001316Y014026D01*
X001390Y014048D01*
X001465Y014065D01*
X001540Y014079D01*
X001617Y014088D01*
X001693Y014094D01*
X001770Y014096D01*
X000253Y012579D02*
X000253Y001600D01*
X001359Y001600D02*
X001361Y001639D01*
X001367Y001678D01*
X001377Y001716D01*
X001390Y001753D01*
X001407Y001788D01*
X001427Y001822D01*
X001451Y001853D01*
X001478Y001882D01*
X001507Y001908D01*
X001539Y001931D01*
X001573Y001951D01*
X001609Y001967D01*
X001646Y001979D01*
X001685Y001988D01*
X001724Y001993D01*
X001763Y001994D01*
X001802Y001991D01*
X001841Y001984D01*
X001878Y001973D01*
X001915Y001959D01*
X001950Y001941D01*
X001983Y001920D01*
X002014Y001895D01*
X002042Y001868D01*
X002067Y001838D01*
X002089Y001805D01*
X002108Y001771D01*
X002123Y001735D01*
X002135Y001697D01*
X002143Y001659D01*
X002147Y001620D01*
X002147Y001580D01*
X002143Y001541D01*
X002135Y001503D01*
X002123Y001465D01*
X002108Y001429D01*
X002089Y001395D01*
X002067Y001362D01*
X002042Y001332D01*
X002014Y001305D01*
X001983Y001280D01*
X001950Y001259D01*
X001915Y001241D01*
X001878Y001227D01*
X001841Y001216D01*
X001802Y001209D01*
X001763Y001206D01*
X001724Y001207D01*
X001685Y001212D01*
X001646Y001221D01*
X001609Y001233D01*
X001573Y001249D01*
X001539Y001269D01*
X001507Y001292D01*
X001478Y001318D01*
X001451Y001347D01*
X001427Y001378D01*
X001407Y001412D01*
X001390Y001447D01*
X001377Y001484D01*
X001367Y001522D01*
X001361Y001561D01*
X001359Y001600D01*
X000253Y001600D02*
X000255Y001524D01*
X000261Y001448D01*
X000270Y001373D01*
X000284Y001298D01*
X000301Y001224D01*
X000322Y001151D01*
X000346Y001079D01*
X000375Y001008D01*
X000406Y000939D01*
X000441Y000872D01*
X000480Y000807D01*
X000522Y000743D01*
X000567Y000682D01*
X000615Y000623D01*
X000666Y000567D01*
X000720Y000513D01*
X000776Y000462D01*
X000835Y000414D01*
X000896Y000369D01*
X000960Y000327D01*
X001025Y000288D01*
X001092Y000253D01*
X001161Y000222D01*
X001232Y000193D01*
X001304Y000169D01*
X001377Y000148D01*
X001451Y000131D01*
X001526Y000117D01*
X001601Y000108D01*
X001677Y000102D01*
X001753Y000100D01*
X020109Y012600D02*
X020111Y012639D01*
X020117Y012678D01*
X020127Y012716D01*
X020140Y012753D01*
X020157Y012788D01*
X020177Y012822D01*
X020201Y012853D01*
X020228Y012882D01*
X020257Y012908D01*
X020289Y012931D01*
X020323Y012951D01*
X020359Y012967D01*
X020396Y012979D01*
X020435Y012988D01*
X020474Y012993D01*
X020513Y012994D01*
X020552Y012991D01*
X020591Y012984D01*
X020628Y012973D01*
X020665Y012959D01*
X020700Y012941D01*
X020733Y012920D01*
X020764Y012895D01*
X020792Y012868D01*
X020817Y012838D01*
X020839Y012805D01*
X020858Y012771D01*
X020873Y012735D01*
X020885Y012697D01*
X020893Y012659D01*
X020897Y012620D01*
X020897Y012580D01*
X020893Y012541D01*
X020885Y012503D01*
X020873Y012465D01*
X020858Y012429D01*
X020839Y012395D01*
X020817Y012362D01*
X020792Y012332D01*
X020764Y012305D01*
X020733Y012280D01*
X020700Y012259D01*
X020665Y012241D01*
X020628Y012227D01*
X020591Y012216D01*
X020552Y012209D01*
X020513Y012206D01*
X020474Y012207D01*
X020435Y012212D01*
X020396Y012221D01*
X020359Y012233D01*
X020323Y012249D01*
X020289Y012269D01*
X020257Y012292D01*
X020228Y012318D01*
X020201Y012347D01*
X020177Y012378D01*
X020157Y012412D01*
X020140Y012447D01*
X020127Y012484D01*
X020117Y012522D01*
X020111Y012561D01*
X020109Y012600D01*
D11*
X019333Y010350D03*
X019333Y009850D03*
X019333Y009350D03*
X019333Y008850D03*
X019333Y007600D03*
X019333Y007100D03*
X019333Y006600D03*
X019333Y006100D03*
X019333Y004850D03*
X019333Y004350D03*
X019333Y003850D03*
X019333Y003350D03*
X017173Y003350D03*
X017173Y003850D03*
X017173Y004350D03*
X017173Y004850D03*
X017173Y006100D03*
X017173Y006600D03*
X017173Y007100D03*
X017173Y007600D03*
X017173Y008850D03*
X017173Y009350D03*
X017173Y009850D03*
X017173Y010350D03*
D12*
X010606Y008540D03*
X010291Y008540D03*
X009976Y008540D03*
X009661Y008540D03*
X009346Y008540D03*
X009031Y008540D03*
X008716Y008540D03*
X008401Y008540D03*
X008401Y005160D03*
X008716Y005160D03*
X009031Y005160D03*
X009346Y005160D03*
X009661Y005160D03*
X009976Y005160D03*
X010291Y005160D03*
X010606Y005160D03*
D13*
X011193Y005748D03*
X011193Y006063D03*
X011193Y006378D03*
X011193Y006693D03*
X011193Y007007D03*
X011193Y007322D03*
X011193Y007637D03*
X011193Y007952D03*
X007813Y007952D03*
X007813Y007637D03*
X007813Y007322D03*
X007813Y007007D03*
X007813Y006693D03*
X007813Y006378D03*
X007813Y006063D03*
X007813Y005748D03*
D14*
X001503Y005850D03*
X001503Y004850D03*
X001503Y006850D03*
X003753Y012350D03*
X004753Y012350D03*
X005753Y012350D03*
X020753Y010100D03*
X020753Y009100D03*
X020753Y007350D03*
X020753Y006350D03*
X020753Y004600D03*
X020753Y003600D03*
D15*
X006804Y006350D03*
X005702Y006350D03*
X004804Y006350D03*
X003702Y006350D03*
D16*
X004753Y008100D03*
X006253Y008100D03*
X006253Y010100D03*
X004753Y010100D03*
D17*
X013003Y012100D03*
X001503Y003850D03*
D18*
X011003Y011100D03*
X012003Y011100D03*
X013003Y011100D03*
X012003Y012100D03*
X011003Y012100D03*
D19*
X008753Y010901D03*
X008753Y009799D03*
X015003Y010151D03*
X016253Y010151D03*
X016253Y009049D03*
X015003Y009049D03*
X015003Y007401D03*
X016253Y007401D03*
X016253Y006299D03*
X015003Y006299D03*
X015003Y004651D03*
X016253Y004651D03*
X016253Y003549D03*
X015003Y003549D03*
D20*
X013003Y003441D03*
X012003Y003441D03*
X012003Y002259D03*
X013003Y002259D03*
X003503Y007509D03*
X003503Y008691D03*
D21*
X012003Y004954D03*
X012003Y004246D03*
X013003Y004496D03*
X013003Y005204D03*
D22*
X005163Y004570D03*
X004253Y004570D03*
X003343Y004570D03*
D23*
X004253Y002130D03*
D24*
X002503Y007549D03*
X002503Y008651D03*
X007753Y009799D03*
X007753Y010901D03*
D25*
X010031Y003600D03*
X010503Y003600D03*
X010976Y003600D03*
D26*
X010976Y004128D01*
X010606Y004498D01*
X010606Y005160D01*
X010291Y005160D02*
X010291Y004387D01*
X010031Y004128D01*
X010031Y003600D01*
X009346Y004443D02*
X009346Y005160D01*
X009346Y006943D01*
X009661Y007257D01*
X009661Y007350D01*
X010003Y007350D01*
X009976Y007322D01*
X009976Y005160D01*
X009346Y004443D02*
X008753Y003850D01*
X007003Y003850D01*
X006503Y004350D01*
X006253Y004350D01*
X006003Y004600D01*
X006003Y005100D01*
X005753Y005350D01*
X004753Y005350D01*
X004503Y005350D01*
X004253Y005100D01*
X004253Y004570D01*
X004753Y005350D02*
X004753Y006299D01*
X004804Y006350D01*
X005702Y006350D01*
X006804Y006350D02*
X007147Y006693D01*
X007813Y006693D01*
X006804Y006350D02*
X006804Y007799D01*
X006503Y008100D01*
X006253Y008100D01*
X006003Y008100D01*
X005753Y007850D01*
X005753Y007600D01*
X007313Y008540D02*
X006503Y009350D01*
X006003Y009350D01*
X005753Y009600D01*
X005753Y012350D01*
X004753Y012350D02*
X004753Y011350D01*
X005253Y010850D01*
X005253Y009350D01*
X005753Y008850D01*
X006503Y008850D01*
X007401Y007952D01*
X007813Y007952D01*
X007313Y008540D02*
X008401Y008540D01*
X009661Y008540D02*
X009661Y009443D01*
X009304Y009799D01*
X008753Y009799D01*
X007753Y009799D01*
X009753Y010100D02*
X009753Y012100D01*
X012003Y011100D02*
X013253Y009850D01*
X013253Y008600D01*
X012503Y007850D01*
X012291Y007637D01*
X011193Y007637D01*
X011193Y007322D02*
X012726Y007322D01*
X014003Y008600D01*
X014003Y009850D01*
X014253Y010100D01*
X014952Y010100D01*
X015003Y010151D01*
X015003Y009049D02*
X016253Y009049D01*
X016554Y009049D01*
X016753Y008850D01*
X017173Y008850D01*
X015003Y007401D02*
X014952Y007350D01*
X013753Y007350D01*
X013411Y007007D01*
X011193Y007007D01*
X011193Y006693D02*
X013161Y006693D01*
X013253Y006600D01*
X013253Y006350D01*
X014003Y005600D01*
X014003Y005100D01*
X014503Y004600D01*
X014952Y004600D01*
X015003Y004651D01*
X015003Y003549D02*
X016253Y003549D01*
X016554Y003549D01*
X016753Y003350D01*
X017173Y003350D01*
X017173Y006100D02*
X016753Y006100D01*
X016554Y006299D01*
X016253Y006299D01*
X015003Y006299D01*
X013003Y005350D02*
X013003Y005204D01*
X013003Y005350D02*
X012753Y005600D01*
X012503Y005600D01*
X012041Y006063D01*
X011193Y006063D01*
X011193Y006378D02*
X012476Y006378D01*
X012753Y006100D01*
X012003Y005600D02*
X012003Y004954D01*
X012003Y005600D02*
X011856Y005748D01*
X011193Y005748D01*
X013003Y004496D02*
X013003Y003441D01*
X012003Y003441D02*
X012003Y004246D01*
X007813Y005748D02*
X007151Y005748D01*
X007003Y005600D01*
X009661Y007350D02*
X009661Y008540D01*
X010291Y008540D02*
X010291Y009137D01*
X010753Y009600D01*
X011753Y009600D01*
X011253Y010100D02*
X009753Y010100D01*
X011253Y010100D02*
X011503Y010350D01*
X012003Y010350D01*
X012503Y009850D01*
X012503Y009350D01*
X011693Y008540D01*
X010606Y008540D01*
X010291Y008540D02*
X010291Y007637D01*
X010003Y007350D01*
X011193Y007952D02*
X011856Y007952D01*
X012503Y008600D01*
X003702Y006901D02*
X003702Y006350D01*
X003702Y006901D02*
X003503Y007100D01*
X003503Y007509D01*
D27*
X005753Y007600D03*
X007003Y005600D03*
X007003Y003850D03*
X012753Y006100D03*
X012503Y007850D03*
X012503Y008600D03*
X011753Y009600D03*
X009753Y010100D03*
X009753Y012100D03*
D28*
X002503Y007549D02*
X002503Y007100D01*
X002253Y006850D01*
X002753Y006350D01*
X002753Y004850D01*
X003003Y004600D01*
X003313Y004600D01*
X003343Y004570D01*
X002253Y006850D02*
X001503Y006850D01*
X017173Y006600D02*
X017173Y007100D01*
X017173Y007600D01*
X019333Y007600D02*
X019333Y007350D01*
X020753Y007350D01*
X019333Y007350D02*
X019333Y007100D01*
X019333Y006600D01*
X019333Y006100D01*
X019333Y004850D02*
X019333Y004600D01*
X020753Y004600D01*
X019333Y004600D02*
X019333Y004350D01*
X019333Y003850D01*
X019333Y003350D01*
X017173Y003850D02*
X017173Y004350D01*
X017173Y004850D01*
X019333Y008850D02*
X019333Y009350D01*
X019333Y009850D01*
X019333Y010100D01*
X020753Y010100D01*
X019333Y010100D02*
X019333Y010350D01*
X017173Y010350D02*
X017173Y009850D01*
X017173Y009350D01*
D29*
X001098Y000844D02*
X000997Y000945D01*
X000912Y001059D01*
X000844Y001185D01*
X000794Y001318D01*
X000763Y001458D01*
X000753Y001600D01*
X000753Y012600D01*
X000763Y012742D01*
X000794Y012882D01*
X000844Y013015D01*
X000912Y013141D01*
X000997Y013255D01*
X001098Y013356D01*
X001213Y013441D01*
X001338Y013510D01*
X001471Y013559D01*
X001611Y013590D01*
X001753Y013600D01*
X020503Y013600D01*
X020646Y013590D01*
X020785Y013559D01*
X020919Y013510D01*
X021044Y013441D01*
X021158Y013356D01*
X021259Y013255D01*
X021344Y013141D01*
X021413Y013015D01*
X021463Y012882D01*
X021493Y012742D01*
X021503Y012600D01*
X021503Y001600D01*
X021493Y001458D01*
X021463Y001318D01*
X021413Y001185D01*
X021344Y001059D01*
X021259Y000945D01*
X021158Y000844D01*
X021044Y000759D01*
X020919Y000690D01*
X020785Y000641D01*
X020646Y000610D01*
X020503Y000600D01*
X001753Y000600D01*
X001611Y000610D01*
X001471Y000641D01*
X001338Y000690D01*
X001213Y000759D01*
X001098Y000844D01*
X001050Y000893D02*
X001225Y000893D01*
X001258Y000859D02*
X001579Y000726D01*
X001927Y000726D01*
X002248Y000859D01*
X002494Y001105D01*
X002627Y001426D01*
X002627Y001774D01*
X002494Y002095D01*
X002248Y002341D01*
X001927Y002474D01*
X001579Y002474D01*
X001258Y002341D01*
X001013Y002095D01*
X000880Y001774D01*
X000880Y001426D01*
X001013Y001105D01*
X001258Y000859D01*
X001258Y000734D02*
X001561Y000734D01*
X001946Y000734D02*
X020311Y000734D01*
X020329Y000726D02*
X020677Y000726D01*
X020998Y000859D01*
X021244Y001105D01*
X021377Y001426D01*
X021377Y001774D01*
X021244Y002095D01*
X020998Y002341D01*
X020677Y002474D01*
X020329Y002474D01*
X020008Y002341D01*
X019763Y002095D01*
X019630Y001774D01*
X019630Y001426D01*
X019763Y001105D01*
X020008Y000859D01*
X020329Y000726D01*
X020696Y000734D02*
X020999Y000734D01*
X021031Y000893D02*
X021206Y000893D01*
X021190Y001051D02*
X021338Y001051D01*
X021287Y001210D02*
X021422Y001210D01*
X021474Y001368D02*
X021353Y001368D01*
X021377Y001527D02*
X021498Y001527D01*
X021503Y001685D02*
X021377Y001685D01*
X021348Y001844D02*
X021503Y001844D01*
X021503Y002002D02*
X021282Y002002D01*
X021178Y002161D02*
X021503Y002161D01*
X021503Y002319D02*
X021020Y002319D01*
X021503Y002478D02*
X013479Y002478D01*
X013479Y002522D02*
X013465Y002573D01*
X013439Y002618D01*
X013402Y002656D01*
X013356Y002682D01*
X013305Y002696D01*
X013041Y002696D01*
X013041Y002298D01*
X012965Y002298D01*
X012965Y002696D01*
X012701Y002696D01*
X012650Y002682D01*
X012605Y002656D01*
X012568Y002618D01*
X012541Y002573D01*
X012528Y002522D01*
X012528Y002298D01*
X012965Y002298D01*
X012965Y002221D01*
X013041Y002221D01*
X013041Y001823D01*
X013305Y001823D01*
X013356Y001837D01*
X013402Y001863D01*
X013439Y001900D01*
X013465Y001946D01*
X013479Y001997D01*
X013479Y002221D01*
X013041Y002221D01*
X013041Y002298D01*
X013479Y002298D01*
X013479Y002522D01*
X013421Y002636D02*
X021503Y002636D01*
X021503Y002795D02*
X000753Y002795D01*
X000753Y002953D02*
X021503Y002953D01*
X021503Y003112D02*
X021050Y003112D01*
X021052Y003112D02*
X021125Y003165D01*
X021188Y003229D01*
X021241Y003301D01*
X021281Y003381D01*
X021309Y003467D01*
X021323Y003555D01*
X021323Y003580D01*
X020773Y003580D01*
X020773Y003030D01*
X020798Y003030D01*
X020887Y003044D01*
X020972Y003072D01*
X021052Y003112D01*
X020773Y003112D02*
X020733Y003112D01*
X020733Y003030D02*
X020733Y003580D01*
X020183Y003580D01*
X020183Y003555D01*
X020197Y003467D01*
X020225Y003381D01*
X020266Y003301D01*
X020318Y003229D01*
X020382Y003165D01*
X020454Y003112D01*
X020534Y003072D01*
X020620Y003044D01*
X020708Y003030D01*
X020733Y003030D01*
X020733Y003270D02*
X020773Y003270D01*
X020773Y003429D02*
X020733Y003429D01*
X020733Y003580D02*
X020773Y003580D01*
X020773Y003620D01*
X021323Y003620D01*
X021323Y003645D01*
X021309Y003733D01*
X021281Y003819D01*
X021241Y003899D01*
X021188Y003971D01*
X021125Y004035D01*
X021052Y004088D01*
X021031Y004098D01*
X021076Y004117D01*
X021236Y004277D01*
X021323Y004487D01*
X021323Y004713D01*
X021236Y004923D01*
X021076Y005083D01*
X020867Y005170D01*
X020640Y005170D01*
X020430Y005083D01*
X020307Y004960D01*
X019833Y004960D01*
X019833Y005053D01*
X019716Y005170D01*
X019501Y005170D01*
X019405Y005210D01*
X019262Y005210D01*
X019165Y005170D01*
X018950Y005170D01*
X018833Y005053D01*
X018833Y004647D01*
X018880Y004600D01*
X018833Y004553D01*
X018833Y004147D01*
X018880Y004100D01*
X018833Y004053D01*
X018833Y003647D01*
X018880Y003600D01*
X018833Y003553D01*
X018833Y003147D01*
X018950Y003030D01*
X019165Y003030D01*
X019262Y002990D01*
X019405Y002990D01*
X019501Y003030D01*
X019716Y003030D01*
X019833Y003147D01*
X019833Y003553D01*
X019786Y003600D01*
X019833Y003647D01*
X019833Y004053D01*
X019786Y004100D01*
X019833Y004147D01*
X019833Y004240D01*
X020307Y004240D01*
X020430Y004117D01*
X020475Y004098D01*
X020454Y004088D01*
X020382Y004035D01*
X020318Y003971D01*
X020266Y003899D01*
X020225Y003819D01*
X020197Y003733D01*
X020183Y003645D01*
X020183Y003620D01*
X020733Y003620D01*
X020733Y003580D01*
X020733Y003587D02*
X019799Y003587D01*
X019833Y003429D02*
X020210Y003429D01*
X020288Y003270D02*
X019833Y003270D01*
X019798Y003112D02*
X020456Y003112D01*
X020773Y003587D02*
X021503Y003587D01*
X021503Y003429D02*
X021297Y003429D01*
X021218Y003270D02*
X021503Y003270D01*
X021503Y003746D02*
X021305Y003746D01*
X021237Y003904D02*
X021503Y003904D01*
X021503Y004063D02*
X021086Y004063D01*
X021180Y004221D02*
X021503Y004221D01*
X021503Y004380D02*
X021279Y004380D01*
X021323Y004538D02*
X021503Y004538D01*
X021503Y004697D02*
X021323Y004697D01*
X021265Y004855D02*
X021503Y004855D01*
X021503Y005014D02*
X021146Y005014D01*
X021503Y005172D02*
X019497Y005172D01*
X019170Y005172D02*
X014355Y005172D01*
X014303Y005224D02*
X014303Y005660D01*
X014258Y005770D01*
X014173Y005854D01*
X013553Y006474D01*
X013553Y006660D01*
X013524Y006730D01*
X013581Y006753D01*
X013877Y007050D01*
X014449Y007050D01*
X014449Y007003D01*
X014566Y006886D01*
X015440Y006886D01*
X015558Y007003D01*
X015558Y007799D01*
X015440Y007916D01*
X014566Y007916D01*
X014449Y007799D01*
X014449Y007650D01*
X013694Y007650D01*
X013583Y007604D01*
X013499Y007520D01*
X013499Y007520D01*
X013286Y007307D01*
X013135Y007307D01*
X014173Y008346D01*
X014258Y008430D01*
X014303Y008540D01*
X014303Y009726D01*
X014377Y009800D01*
X014449Y009800D01*
X014449Y009753D01*
X014566Y009636D01*
X015440Y009636D01*
X015558Y009753D01*
X015558Y010549D01*
X015440Y010666D01*
X014566Y010666D01*
X014449Y010549D01*
X014449Y010400D01*
X014194Y010400D01*
X014083Y010354D01*
X013999Y010270D01*
X013749Y010020D01*
X013703Y009910D01*
X013703Y008724D01*
X013553Y008574D01*
X013553Y009910D01*
X013508Y010020D01*
X013423Y010104D01*
X012997Y010530D01*
X013239Y010530D01*
X013573Y010864D01*
X013573Y011336D01*
X013379Y011530D01*
X013456Y011530D01*
X013573Y011647D01*
X013573Y012553D01*
X013456Y012670D01*
X012550Y012670D01*
X012433Y012553D01*
X012433Y012476D01*
X012239Y012670D01*
X011767Y012670D01*
X011503Y012406D01*
X011239Y012670D01*
X010767Y012670D01*
X010433Y012336D01*
X010433Y011864D01*
X010697Y011600D01*
X010433Y011336D01*
X010433Y011120D01*
X010983Y011120D01*
X010983Y011080D01*
X010433Y011080D01*
X010433Y010864D01*
X010767Y010530D01*
X010983Y010530D01*
X010983Y011080D01*
X011023Y011080D01*
X011023Y010530D01*
X011239Y010530D01*
X011503Y010794D01*
X011647Y010650D01*
X011444Y010650D01*
X011333Y010604D01*
X011129Y010400D01*
X010104Y010400D01*
X010053Y010450D01*
X010053Y011750D01*
X010213Y011910D01*
X010213Y012290D01*
X009944Y012560D01*
X009563Y012560D01*
X009293Y012290D01*
X009293Y011910D01*
X009453Y011750D01*
X009453Y010450D01*
X009293Y010290D01*
X009293Y010211D01*
X009190Y010314D01*
X008316Y010314D01*
X008214Y010212D01*
X008151Y010274D01*
X007355Y010274D01*
X007238Y010157D01*
X007238Y009440D01*
X007355Y009323D01*
X008151Y009323D01*
X008214Y009386D01*
X008316Y009284D01*
X009190Y009284D01*
X009293Y009386D01*
X009361Y009318D01*
X009361Y008990D01*
X009346Y008990D01*
X009346Y008540D01*
X009346Y008540D01*
X009346Y008090D01*
X009361Y008090D01*
X009361Y007382D01*
X009091Y007112D01*
X009046Y007002D01*
X009046Y005610D01*
X009031Y005610D01*
X009031Y005160D01*
X009031Y004710D01*
X009046Y004710D01*
X009046Y004567D01*
X008629Y004150D01*
X007354Y004150D01*
X007194Y004310D01*
X006968Y004310D01*
X006758Y004520D01*
X006673Y004604D01*
X006563Y004650D01*
X006377Y004650D01*
X006303Y004724D01*
X006303Y005160D01*
X006258Y005270D01*
X006173Y005354D01*
X006008Y005520D01*
X005923Y005604D01*
X005813Y005650D01*
X005053Y005650D01*
X005053Y005796D01*
X005202Y005796D01*
X005253Y005847D01*
X005304Y005796D01*
X006100Y005796D01*
X006217Y005913D01*
X006217Y006787D01*
X006100Y006904D01*
X005304Y006904D01*
X005253Y006853D01*
X005202Y006904D01*
X004407Y006904D01*
X004289Y006787D01*
X004289Y005913D01*
X004407Y005796D01*
X004453Y005796D01*
X004453Y005650D01*
X004444Y005650D01*
X004333Y005604D01*
X004249Y005520D01*
X003999Y005270D01*
X003974Y005210D01*
X003930Y005210D01*
X003813Y005093D01*
X003813Y004047D01*
X003930Y003930D01*
X004576Y003930D01*
X004693Y004047D01*
X004693Y005050D01*
X004727Y005050D01*
X004723Y005036D01*
X004723Y004610D01*
X005123Y004610D01*
X005123Y004530D01*
X004723Y004530D01*
X004723Y004104D01*
X004737Y004053D01*
X004763Y004007D01*
X004800Y003970D01*
X004846Y003944D01*
X004897Y003930D01*
X005123Y003930D01*
X005123Y004530D01*
X005203Y004530D01*
X005203Y003930D01*
X005430Y003930D01*
X005480Y003944D01*
X005526Y003970D01*
X005563Y004007D01*
X005590Y004053D01*
X005603Y004104D01*
X005603Y004530D01*
X005203Y004530D01*
X005203Y004610D01*
X005603Y004610D01*
X005603Y005036D01*
X005600Y005050D01*
X005629Y005050D01*
X005703Y004976D01*
X005703Y004540D01*
X005749Y004430D01*
X005833Y004346D01*
X006083Y004096D01*
X006194Y004050D01*
X006379Y004050D01*
X006543Y003886D01*
X006543Y003660D01*
X006813Y003390D01*
X007194Y003390D01*
X007354Y003550D01*
X008813Y003550D01*
X008923Y003596D01*
X009516Y004188D01*
X009600Y004273D01*
X009646Y004383D01*
X009646Y004710D01*
X009661Y004710D01*
X009991Y004710D01*
X009991Y004512D01*
X009776Y004297D01*
X009731Y004187D01*
X009731Y004055D01*
X009693Y004017D01*
X009693Y003183D01*
X009810Y003065D01*
X010251Y003065D01*
X010274Y003087D01*
X010288Y003079D01*
X010339Y003065D01*
X010503Y003065D01*
X010503Y003600D01*
X010503Y003600D01*
X010503Y004135D01*
X010462Y004135D01*
X010503Y004176D01*
X010544Y004135D01*
X010503Y004135D01*
X010503Y003600D01*
X010503Y003600D01*
X010503Y003065D01*
X010667Y003065D01*
X010718Y003079D01*
X010733Y003087D01*
X010755Y003065D01*
X011196Y003065D01*
X011313Y003183D01*
X011313Y004017D01*
X011276Y004055D01*
X011276Y004187D01*
X011230Y004297D01*
X010906Y004622D01*
X010906Y004817D01*
X010916Y004827D01*
X010916Y005438D01*
X011526Y005438D01*
X011536Y005448D01*
X011703Y005448D01*
X011703Y005312D01*
X011684Y005312D01*
X011567Y005195D01*
X011567Y004714D01*
X011681Y004600D01*
X011567Y004486D01*
X011567Y004005D01*
X011684Y003888D01*
X011703Y003888D01*
X011703Y003877D01*
X011645Y003877D01*
X011528Y003760D01*
X011528Y003121D01*
X011645Y003004D01*
X012362Y003004D01*
X012479Y003121D01*
X012479Y003760D01*
X012362Y003877D01*
X012303Y003877D01*
X012303Y003888D01*
X012322Y003888D01*
X012439Y004005D01*
X012439Y004486D01*
X012325Y004600D01*
X012439Y004714D01*
X012439Y005195D01*
X012322Y005312D01*
X012303Y005312D01*
X012303Y005376D01*
X012333Y005346D01*
X012444Y005300D01*
X012567Y005300D01*
X012567Y004964D01*
X012681Y004850D01*
X012567Y004736D01*
X012567Y004255D01*
X012684Y004138D01*
X012703Y004138D01*
X012703Y003877D01*
X012645Y003877D01*
X012528Y003760D01*
X012528Y003121D01*
X012645Y003004D01*
X013362Y003004D01*
X013479Y003121D01*
X013479Y003760D01*
X013362Y003877D01*
X013303Y003877D01*
X013303Y004138D01*
X013322Y004138D01*
X013439Y004255D01*
X013439Y004736D01*
X013325Y004850D01*
X013439Y004964D01*
X013439Y005445D01*
X013322Y005562D01*
X013216Y005562D01*
X013173Y005604D01*
X013040Y005737D01*
X013213Y005910D01*
X013213Y005966D01*
X013703Y005476D01*
X013703Y005040D01*
X013749Y004930D01*
X014249Y004430D01*
X014333Y004346D01*
X014444Y004300D01*
X014449Y004300D01*
X014449Y004253D01*
X014566Y004136D01*
X015440Y004136D01*
X015558Y004253D01*
X015558Y005049D01*
X015440Y005166D01*
X014566Y005166D01*
X014464Y005064D01*
X014303Y005224D01*
X014303Y005331D02*
X021503Y005331D01*
X021503Y005489D02*
X014303Y005489D01*
X014303Y005648D02*
X021503Y005648D01*
X021503Y005806D02*
X020924Y005806D01*
X020887Y005794D02*
X020972Y005822D01*
X021052Y005862D01*
X021125Y005915D01*
X021188Y005979D01*
X021241Y006051D01*
X021281Y006131D01*
X021309Y006217D01*
X021323Y006305D01*
X021323Y006330D01*
X020773Y006330D01*
X020773Y005780D01*
X020798Y005780D01*
X020887Y005794D01*
X020773Y005806D02*
X020733Y005806D01*
X020733Y005780D02*
X020733Y006330D01*
X020183Y006330D01*
X020183Y006305D01*
X020197Y006217D01*
X020225Y006131D01*
X020266Y006051D01*
X020318Y005979D01*
X020382Y005915D01*
X020454Y005862D01*
X020534Y005822D01*
X020620Y005794D01*
X020708Y005780D01*
X020733Y005780D01*
X020583Y005806D02*
X019742Y005806D01*
X019716Y005780D02*
X019833Y005897D01*
X019833Y006303D01*
X019786Y006350D01*
X019833Y006397D01*
X019833Y006803D01*
X019786Y006850D01*
X019833Y006897D01*
X019833Y006990D01*
X020307Y006990D01*
X020430Y006867D01*
X020475Y006848D01*
X020454Y006838D01*
X020382Y006785D01*
X020318Y006721D01*
X020266Y006649D01*
X020225Y006569D01*
X020197Y006483D01*
X020183Y006395D01*
X020183Y006370D01*
X020733Y006370D01*
X020733Y006330D01*
X020773Y006330D01*
X020773Y006370D01*
X021323Y006370D01*
X021323Y006395D01*
X021309Y006483D01*
X021281Y006569D01*
X021241Y006649D01*
X021188Y006721D01*
X021125Y006785D01*
X021052Y006838D01*
X021031Y006848D01*
X021076Y006867D01*
X021236Y007027D01*
X021323Y007237D01*
X021323Y007463D01*
X021236Y007673D01*
X021076Y007833D01*
X020867Y007920D01*
X020640Y007920D01*
X020430Y007833D01*
X020307Y007710D01*
X019833Y007710D01*
X019833Y007803D01*
X019716Y007920D01*
X019501Y007920D01*
X019405Y007960D01*
X019262Y007960D01*
X019165Y007920D01*
X018950Y007920D01*
X018833Y007803D01*
X018833Y007397D01*
X018880Y007350D01*
X018833Y007303D01*
X018833Y006897D01*
X018880Y006850D01*
X018833Y006803D01*
X018833Y006397D01*
X018880Y006350D01*
X018833Y006303D01*
X018833Y005897D01*
X018950Y005780D01*
X019165Y005780D01*
X019262Y005740D01*
X019405Y005740D01*
X019501Y005780D01*
X019716Y005780D01*
X019833Y005965D02*
X020333Y005965D01*
X020229Y006123D02*
X019833Y006123D01*
X019833Y006282D02*
X020187Y006282D01*
X020190Y006440D02*
X019833Y006440D01*
X019833Y006599D02*
X020240Y006599D01*
X020354Y006757D02*
X019833Y006757D01*
X019833Y006916D02*
X020382Y006916D01*
X021125Y006916D02*
X021503Y006916D01*
X021503Y007074D02*
X021256Y007074D01*
X021322Y007233D02*
X021503Y007233D01*
X021503Y007391D02*
X021323Y007391D01*
X021288Y007550D02*
X021503Y007550D01*
X021503Y007708D02*
X021201Y007708D01*
X020996Y007867D02*
X021503Y007867D01*
X021503Y008025D02*
X013852Y008025D01*
X013694Y007867D02*
X014516Y007867D01*
X014449Y007708D02*
X013535Y007708D01*
X013528Y007550D02*
X013377Y007550D01*
X013370Y007391D02*
X013218Y007391D01*
X013743Y006916D02*
X014537Y006916D01*
X014566Y006814D02*
X014449Y006697D01*
X014449Y005901D01*
X014566Y005784D01*
X015440Y005784D01*
X015558Y005901D01*
X015558Y005999D01*
X015699Y005999D01*
X015699Y005901D01*
X015816Y005784D01*
X016690Y005784D01*
X016707Y005800D01*
X016770Y005800D01*
X016790Y005780D01*
X017556Y005780D01*
X017673Y005897D01*
X017673Y006303D01*
X017626Y006350D01*
X017633Y006357D01*
X017660Y006403D01*
X017673Y006454D01*
X017673Y006600D01*
X017173Y006600D01*
X017173Y006780D01*
X017173Y007100D01*
X017173Y007100D01*
X017173Y007420D01*
X017173Y007600D01*
X017173Y007920D01*
X016847Y007920D01*
X016796Y007906D01*
X016750Y007880D01*
X016738Y007868D01*
X016730Y007876D01*
X016685Y007903D01*
X016634Y007916D01*
X016331Y007916D01*
X016331Y007479D01*
X016176Y007479D01*
X016176Y007916D01*
X015873Y007916D01*
X015822Y007903D01*
X015776Y007876D01*
X015739Y007839D01*
X015713Y007793D01*
X015699Y007742D01*
X015699Y007479D01*
X016176Y007479D01*
X016176Y007324D01*
X016331Y007324D01*
X016331Y006886D01*
X016634Y006886D01*
X016685Y006900D01*
X016688Y006901D01*
X016713Y006857D01*
X016720Y006850D01*
X016713Y006843D01*
X016694Y006810D01*
X016690Y006814D01*
X015816Y006814D01*
X015699Y006697D01*
X015699Y006599D01*
X015558Y006599D01*
X015558Y006697D01*
X015440Y006814D01*
X014566Y006814D01*
X014509Y006757D02*
X013584Y006757D01*
X013553Y006599D02*
X014449Y006599D01*
X014449Y006440D02*
X013587Y006440D01*
X013746Y006282D02*
X014449Y006282D01*
X014449Y006123D02*
X013904Y006123D01*
X014063Y005965D02*
X014449Y005965D01*
X014544Y005806D02*
X014221Y005806D01*
X013690Y005489D02*
X013395Y005489D01*
X013439Y005331D02*
X013703Y005331D01*
X013703Y005172D02*
X013439Y005172D01*
X013439Y005014D02*
X013714Y005014D01*
X013824Y004855D02*
X013330Y004855D01*
X013439Y004697D02*
X013982Y004697D01*
X014141Y004538D02*
X013439Y004538D01*
X013439Y004380D02*
X014299Y004380D01*
X014481Y004221D02*
X013405Y004221D01*
X013303Y004063D02*
X014565Y004063D01*
X014566Y004064D02*
X014449Y003947D01*
X014449Y003151D01*
X014566Y003034D01*
X015440Y003034D01*
X015558Y003151D01*
X015558Y003249D01*
X015699Y003249D01*
X015699Y003151D01*
X015816Y003034D01*
X016690Y003034D01*
X016707Y003050D01*
X016770Y003050D01*
X016790Y003030D01*
X017556Y003030D01*
X017673Y003147D01*
X017673Y003553D01*
X017626Y003600D01*
X017633Y003607D01*
X017660Y003653D01*
X017673Y003704D01*
X017673Y003850D01*
X017173Y003850D01*
X017173Y004170D01*
X017173Y004350D01*
X017173Y004350D01*
X017173Y004670D01*
X017173Y004850D01*
X017173Y005170D01*
X016847Y005170D01*
X016796Y005156D01*
X016750Y005130D01*
X016738Y005118D01*
X016730Y005126D01*
X016685Y005153D01*
X016634Y005166D01*
X016331Y005166D01*
X016331Y004729D01*
X016176Y004729D01*
X016176Y005166D01*
X015873Y005166D01*
X015822Y005153D01*
X015776Y005126D01*
X015739Y005089D01*
X015713Y005043D01*
X015699Y004992D01*
X015699Y004729D01*
X016176Y004729D01*
X016176Y004574D01*
X016331Y004574D01*
X016331Y004136D01*
X016634Y004136D01*
X016685Y004150D01*
X016688Y004151D01*
X016713Y004107D01*
X016720Y004100D01*
X016713Y004093D01*
X016694Y004060D01*
X016690Y004064D01*
X015816Y004064D01*
X015699Y003947D01*
X015699Y003849D01*
X015558Y003849D01*
X015558Y003947D01*
X015440Y004064D01*
X014566Y004064D01*
X014449Y003904D02*
X013303Y003904D01*
X013479Y003746D02*
X014449Y003746D01*
X014449Y003587D02*
X013479Y003587D01*
X013479Y003429D02*
X014449Y003429D01*
X014449Y003270D02*
X013479Y003270D01*
X013469Y003112D02*
X014488Y003112D01*
X015518Y003112D02*
X015738Y003112D01*
X015699Y003904D02*
X015558Y003904D01*
X015442Y004063D02*
X015815Y004063D01*
X015822Y004150D02*
X015776Y004176D01*
X015739Y004213D01*
X015713Y004259D01*
X015699Y004310D01*
X015699Y004574D01*
X016176Y004574D01*
X016176Y004136D01*
X015873Y004136D01*
X015822Y004150D01*
X015734Y004221D02*
X015525Y004221D01*
X015558Y004380D02*
X015699Y004380D01*
X015699Y004538D02*
X015558Y004538D01*
X015558Y004697D02*
X016176Y004697D01*
X016176Y004855D02*
X016331Y004855D01*
X016331Y005014D02*
X016176Y005014D01*
X015705Y005014D02*
X015558Y005014D01*
X015558Y004855D02*
X015699Y004855D01*
X016176Y004538D02*
X016331Y004538D01*
X016331Y004380D02*
X016176Y004380D01*
X016176Y004221D02*
X016331Y004221D01*
X016692Y004063D02*
X016696Y004063D01*
X017173Y004063D02*
X017173Y004063D01*
X017173Y004221D02*
X017173Y004221D01*
X017173Y004350D02*
X017173Y003850D01*
X017173Y003850D01*
X017673Y003850D01*
X017673Y003996D01*
X017660Y004047D01*
X017633Y004093D01*
X017626Y004100D01*
X017633Y004107D01*
X017660Y004153D01*
X017673Y004204D01*
X017673Y004350D01*
X017173Y004350D01*
X017173Y004350D01*
X017173Y004850D01*
X017173Y004850D01*
X017173Y004850D01*
X017173Y005170D01*
X017500Y005170D01*
X017550Y005156D01*
X017596Y005130D01*
X017633Y005093D01*
X017660Y005047D01*
X017673Y004996D01*
X017673Y004850D01*
X017173Y004850D01*
X017673Y004850D01*
X017673Y004704D01*
X017660Y004653D01*
X017633Y004607D01*
X017626Y004600D01*
X017633Y004593D01*
X017660Y004547D01*
X017673Y004496D01*
X017673Y004350D01*
X017173Y004350D01*
X017173Y004350D01*
X017173Y004380D02*
X017173Y004380D01*
X017173Y004538D02*
X017173Y004538D01*
X017173Y004697D02*
X017173Y004697D01*
X017173Y004850D02*
X017173Y004850D01*
X017173Y004855D02*
X017173Y004855D01*
X017173Y005014D02*
X017173Y005014D01*
X017669Y005014D02*
X018833Y005014D01*
X018833Y004855D02*
X017673Y004855D01*
X017671Y004697D02*
X018833Y004697D01*
X018833Y004538D02*
X017662Y004538D01*
X017673Y004380D02*
X018833Y004380D01*
X018833Y004221D02*
X017673Y004221D01*
X017651Y004063D02*
X018843Y004063D01*
X018833Y003904D02*
X017673Y003904D01*
X017673Y003746D02*
X018833Y003746D01*
X018867Y003587D02*
X017639Y003587D01*
X017673Y003429D02*
X018833Y003429D01*
X018833Y003270D02*
X017673Y003270D01*
X017638Y003112D02*
X018869Y003112D01*
X019833Y003746D02*
X020201Y003746D01*
X020270Y003904D02*
X019833Y003904D01*
X019824Y004063D02*
X020420Y004063D01*
X020326Y004221D02*
X019833Y004221D01*
X019833Y005014D02*
X020361Y005014D01*
X018924Y005806D02*
X017582Y005806D01*
X017673Y005965D02*
X018833Y005965D01*
X018833Y006123D02*
X017673Y006123D01*
X017673Y006282D02*
X018833Y006282D01*
X018833Y006440D02*
X017670Y006440D01*
X017673Y006599D02*
X018833Y006599D01*
X018833Y006757D02*
X017670Y006757D01*
X017673Y006746D02*
X017660Y006797D01*
X017633Y006843D01*
X017626Y006850D01*
X017633Y006857D01*
X017660Y006903D01*
X017673Y006954D01*
X017673Y007100D01*
X017173Y007100D01*
X017173Y007100D01*
X017173Y006600D01*
X017173Y006600D01*
X017673Y006600D01*
X017673Y006746D01*
X017663Y006916D02*
X018833Y006916D01*
X018833Y007074D02*
X017673Y007074D01*
X017673Y007100D02*
X017673Y007246D01*
X017660Y007297D01*
X017633Y007343D01*
X017626Y007350D01*
X017633Y007357D01*
X017660Y007403D01*
X017673Y007454D01*
X017673Y007600D01*
X017173Y007600D01*
X017173Y007600D01*
X017173Y007600D01*
X017173Y007920D01*
X017500Y007920D01*
X017550Y007906D01*
X017596Y007880D01*
X017633Y007843D01*
X017660Y007797D01*
X017673Y007746D01*
X017673Y007600D01*
X017173Y007600D01*
X017173Y007100D01*
X017673Y007100D01*
X017673Y007233D02*
X018833Y007233D01*
X018839Y007391D02*
X017653Y007391D01*
X017673Y007550D02*
X018833Y007550D01*
X018833Y007708D02*
X017673Y007708D01*
X017610Y007867D02*
X018897Y007867D01*
X019165Y008530D02*
X019262Y008490D01*
X019405Y008490D01*
X019501Y008530D01*
X019716Y008530D01*
X019833Y008647D01*
X019833Y009053D01*
X019786Y009100D01*
X019833Y009147D01*
X019833Y009553D01*
X019786Y009600D01*
X019833Y009647D01*
X019833Y009740D01*
X020307Y009740D01*
X020430Y009617D01*
X020475Y009598D01*
X020454Y009588D01*
X020382Y009535D01*
X020318Y009471D01*
X020266Y009399D01*
X020225Y009319D01*
X020197Y009233D01*
X020183Y009145D01*
X020183Y009120D01*
X020733Y009120D01*
X020733Y009080D01*
X020183Y009080D01*
X020183Y009055D01*
X020197Y008967D01*
X020225Y008881D01*
X020266Y008801D01*
X020318Y008729D01*
X020382Y008665D01*
X020454Y008612D01*
X020534Y008572D01*
X020620Y008544D01*
X020708Y008530D01*
X020733Y008530D01*
X020733Y009080D01*
X020773Y009080D01*
X020773Y008530D01*
X020798Y008530D01*
X020887Y008544D01*
X020972Y008572D01*
X021052Y008612D01*
X021125Y008665D01*
X021188Y008729D01*
X021241Y008801D01*
X021281Y008881D01*
X021309Y008967D01*
X021323Y009055D01*
X021323Y009080D01*
X020773Y009080D01*
X020773Y009120D01*
X021323Y009120D01*
X021323Y009145D01*
X021309Y009233D01*
X021281Y009319D01*
X021241Y009399D01*
X021188Y009471D01*
X021125Y009535D01*
X021052Y009588D01*
X021031Y009598D01*
X021076Y009617D01*
X021236Y009777D01*
X021323Y009987D01*
X021323Y010213D01*
X021236Y010423D01*
X021076Y010583D01*
X020867Y010670D01*
X020640Y010670D01*
X020430Y010583D01*
X020307Y010460D01*
X019833Y010460D01*
X019833Y010553D01*
X019716Y010670D01*
X019501Y010670D01*
X019405Y010710D01*
X019262Y010710D01*
X019165Y010670D01*
X018950Y010670D01*
X018833Y010553D01*
X018833Y010147D01*
X018880Y010100D01*
X018833Y010053D01*
X018833Y009647D01*
X018880Y009600D01*
X018833Y009553D01*
X018833Y009147D01*
X018880Y009100D01*
X018833Y009053D01*
X018833Y008647D01*
X018950Y008530D01*
X019165Y008530D01*
X019236Y008501D02*
X014287Y008501D01*
X014303Y008659D02*
X014449Y008659D01*
X014449Y008651D02*
X014566Y008534D01*
X015440Y008534D01*
X015558Y008651D01*
X015558Y008749D01*
X015699Y008749D01*
X015699Y008651D01*
X015816Y008534D01*
X016690Y008534D01*
X016707Y008550D01*
X016770Y008550D01*
X016790Y008530D01*
X017556Y008530D01*
X017673Y008647D01*
X017673Y009053D01*
X017626Y009100D01*
X017633Y009107D01*
X017660Y009153D01*
X017673Y009204D01*
X017673Y009350D01*
X017173Y009350D01*
X017173Y009670D01*
X017173Y009850D01*
X017173Y009850D01*
X017173Y010170D01*
X017173Y010350D01*
X017173Y010670D01*
X016847Y010670D01*
X016796Y010656D01*
X016750Y010630D01*
X016738Y010618D01*
X016730Y010626D01*
X016685Y010653D01*
X016634Y010666D01*
X016331Y010666D01*
X016331Y010229D01*
X016176Y010229D01*
X016176Y010666D01*
X015873Y010666D01*
X015822Y010653D01*
X015776Y010626D01*
X015739Y010589D01*
X015713Y010543D01*
X015699Y010492D01*
X015699Y010229D01*
X016176Y010229D01*
X016176Y010074D01*
X016331Y010074D01*
X016331Y009636D01*
X016634Y009636D01*
X016685Y009650D01*
X016688Y009651D01*
X016713Y009607D01*
X016720Y009600D01*
X016713Y009593D01*
X016694Y009560D01*
X016690Y009564D01*
X015816Y009564D01*
X015699Y009447D01*
X015699Y009349D01*
X015558Y009349D01*
X015558Y009447D01*
X015440Y009564D01*
X014566Y009564D01*
X014449Y009447D01*
X014449Y008651D01*
X014449Y008818D02*
X014303Y008818D01*
X014303Y008976D02*
X014449Y008976D01*
X014449Y009135D02*
X014303Y009135D01*
X014303Y009293D02*
X014449Y009293D01*
X014454Y009452D02*
X014303Y009452D01*
X014303Y009610D02*
X016712Y009610D01*
X016331Y009769D02*
X016176Y009769D01*
X016176Y009636D02*
X015873Y009636D01*
X015822Y009650D01*
X015776Y009676D01*
X015739Y009713D01*
X015713Y009759D01*
X015699Y009810D01*
X015699Y010074D01*
X016176Y010074D01*
X016176Y009636D01*
X016176Y009927D02*
X016331Y009927D01*
X016176Y010086D02*
X015558Y010086D01*
X015558Y010244D02*
X015699Y010244D01*
X015699Y010403D02*
X015558Y010403D01*
X015546Y010561D02*
X015723Y010561D01*
X016176Y010561D02*
X016331Y010561D01*
X016331Y010403D02*
X016176Y010403D01*
X016176Y010244D02*
X016331Y010244D01*
X015699Y009927D02*
X015558Y009927D01*
X015558Y009769D02*
X015710Y009769D01*
X015704Y009452D02*
X015553Y009452D01*
X014449Y009769D02*
X014346Y009769D01*
X013814Y010086D02*
X013442Y010086D01*
X013283Y010244D02*
X013973Y010244D01*
X014449Y010403D02*
X013125Y010403D01*
X013270Y010561D02*
X014461Y010561D01*
X013573Y010878D02*
X021503Y010878D01*
X021503Y010720D02*
X013429Y010720D01*
X013573Y011037D02*
X021503Y011037D01*
X021503Y011195D02*
X013573Y011195D01*
X013556Y011354D02*
X021503Y011354D01*
X021503Y011512D02*
X013397Y011512D01*
X013573Y011671D02*
X021503Y011671D01*
X021503Y011829D02*
X020925Y011829D01*
X020998Y011859D02*
X021244Y012105D01*
X021377Y012426D01*
X021377Y012774D01*
X021244Y013095D01*
X020998Y013341D01*
X020677Y013474D01*
X020329Y013474D01*
X020008Y013341D01*
X019763Y013095D01*
X019630Y012774D01*
X019630Y012426D01*
X019763Y012105D01*
X020008Y011859D01*
X020329Y011726D01*
X020677Y011726D01*
X020998Y011859D01*
X021126Y011988D02*
X021503Y011988D01*
X021503Y012146D02*
X021261Y012146D01*
X021327Y012305D02*
X021503Y012305D01*
X021503Y012463D02*
X021377Y012463D01*
X021377Y012622D02*
X021502Y012622D01*
X021485Y012780D02*
X021374Y012780D01*
X021309Y012939D02*
X021442Y012939D01*
X021368Y013097D02*
X021242Y013097D01*
X021258Y013256D02*
X021083Y013256D01*
X021080Y013414D02*
X020821Y013414D01*
X020725Y013573D02*
X001531Y013573D01*
X001579Y013474D02*
X001258Y013341D01*
X001013Y013095D01*
X000880Y012774D01*
X000880Y012426D01*
X001013Y012105D01*
X001258Y011859D01*
X001579Y011726D01*
X001927Y011726D01*
X002248Y011859D01*
X002494Y012105D01*
X002627Y012426D01*
X002627Y012774D01*
X002494Y013095D01*
X002248Y013341D01*
X001927Y013474D01*
X001579Y013474D01*
X001435Y013414D02*
X001176Y013414D01*
X001173Y013256D02*
X000998Y013256D01*
X001015Y013097D02*
X000888Y013097D01*
X000948Y012939D02*
X000815Y012939D01*
X000772Y012780D02*
X000882Y012780D01*
X000880Y012622D02*
X000755Y012622D01*
X000753Y012463D02*
X000880Y012463D01*
X000930Y012305D02*
X000753Y012305D01*
X000753Y012146D02*
X000996Y012146D01*
X001130Y011988D02*
X000753Y011988D01*
X000753Y011829D02*
X001331Y011829D01*
X000753Y011671D02*
X004453Y011671D01*
X004453Y011829D02*
X003986Y011829D01*
X003972Y011822D02*
X004052Y011862D01*
X004125Y011915D01*
X004188Y011979D01*
X004241Y012051D01*
X004251Y012072D01*
X004270Y012027D01*
X004430Y011867D01*
X004453Y011857D01*
X004453Y011290D01*
X004499Y011180D01*
X004583Y011096D01*
X004953Y010726D01*
X004953Y010600D01*
X004520Y010600D01*
X004403Y010483D01*
X004403Y009717D01*
X004520Y009600D01*
X004953Y009600D01*
X004953Y009290D01*
X004999Y009180D01*
X005083Y009096D01*
X005583Y008596D01*
X005694Y008550D01*
X005970Y008550D01*
X005903Y008483D01*
X005903Y008383D01*
X005833Y008354D01*
X005583Y008104D01*
X005499Y008020D01*
X005482Y007979D01*
X005293Y007790D01*
X005293Y007410D01*
X005563Y007140D01*
X005944Y007140D01*
X006213Y007410D01*
X006213Y007600D01*
X006486Y007600D01*
X006504Y007618D01*
X006504Y006904D01*
X006407Y006904D01*
X006289Y006787D01*
X006289Y005913D01*
X006407Y005796D01*
X006549Y005796D01*
X006543Y005790D01*
X006543Y005410D01*
X006813Y005140D01*
X007194Y005140D01*
X007463Y005410D01*
X007463Y005448D01*
X007470Y005448D01*
X007480Y005438D01*
X008091Y005438D01*
X008091Y004827D01*
X008208Y004710D01*
X009031Y004710D01*
X009031Y005160D01*
X009031Y005160D01*
X009031Y005160D01*
X009031Y005610D01*
X008263Y005610D01*
X008263Y008090D01*
X009224Y008090D01*
X009346Y008090D01*
X009346Y008540D01*
X009346Y008540D01*
X009346Y008990D01*
X008208Y008990D01*
X008091Y008873D01*
X008091Y008840D01*
X007437Y008840D01*
X006673Y009604D01*
X006563Y009650D01*
X006536Y009650D01*
X006603Y009717D01*
X006603Y010483D01*
X006486Y010600D01*
X006053Y010600D01*
X006053Y011857D01*
X006076Y011867D01*
X006236Y012027D01*
X006323Y012237D01*
X006323Y012463D01*
X009466Y012463D01*
X009307Y012305D02*
X006323Y012305D01*
X006323Y012463D02*
X006236Y012673D01*
X006076Y012833D01*
X005867Y012920D01*
X005640Y012920D01*
X005430Y012833D01*
X005270Y012673D01*
X005253Y012632D01*
X005236Y012673D01*
X005076Y012833D01*
X004867Y012920D01*
X004640Y012920D01*
X004430Y012833D01*
X004270Y012673D01*
X004251Y012628D01*
X004241Y012649D01*
X004188Y012721D01*
X004125Y012785D01*
X004052Y012838D01*
X003972Y012878D01*
X003887Y012906D01*
X003798Y012920D01*
X003773Y012920D01*
X003773Y012370D01*
X003733Y012370D01*
X003733Y012330D01*
X003183Y012330D01*
X003183Y012305D01*
X003197Y012217D01*
X003225Y012131D01*
X003266Y012051D01*
X003318Y011979D01*
X003382Y011915D01*
X003454Y011862D01*
X003534Y011822D01*
X003620Y011794D01*
X003708Y011780D01*
X003733Y011780D01*
X003733Y012330D01*
X003773Y012330D01*
X003773Y011780D01*
X003798Y011780D01*
X003887Y011794D01*
X003972Y011822D01*
X003773Y011829D02*
X003733Y011829D01*
X003733Y011988D02*
X003773Y011988D01*
X003773Y012146D02*
X003733Y012146D01*
X003733Y012305D02*
X003773Y012305D01*
X003733Y012370D02*
X003183Y012370D01*
X003183Y012395D01*
X003197Y012483D01*
X003225Y012569D01*
X003266Y012649D01*
X003318Y012721D01*
X003382Y012785D01*
X003454Y012838D01*
X003534Y012878D01*
X003620Y012906D01*
X003708Y012920D01*
X003733Y012920D01*
X003733Y012370D01*
X003733Y012463D02*
X003773Y012463D01*
X003773Y012622D02*
X003733Y012622D01*
X003733Y012780D02*
X003773Y012780D01*
X003377Y012780D02*
X002624Y012780D01*
X002559Y012939D02*
X019698Y012939D01*
X019765Y013097D02*
X002492Y013097D01*
X002333Y013256D02*
X019923Y013256D01*
X020185Y013414D02*
X002071Y013414D01*
X002627Y012622D02*
X003252Y012622D01*
X003194Y012463D02*
X002627Y012463D01*
X002577Y012305D02*
X003183Y012305D01*
X003220Y012146D02*
X002511Y012146D01*
X002376Y011988D02*
X003312Y011988D01*
X003520Y011829D02*
X002175Y011829D01*
X000753Y011512D02*
X004453Y011512D01*
X004453Y011354D02*
X000753Y011354D01*
X000753Y011195D02*
X004493Y011195D01*
X004642Y011037D02*
X000753Y011037D01*
X000753Y010878D02*
X004801Y010878D01*
X004953Y010720D02*
X000753Y010720D01*
X000753Y010561D02*
X004481Y010561D01*
X004403Y010403D02*
X000753Y010403D01*
X000753Y010244D02*
X004403Y010244D01*
X004403Y010086D02*
X000753Y010086D01*
X000753Y009927D02*
X004403Y009927D01*
X004403Y009769D02*
X000753Y009769D01*
X000753Y009610D02*
X004510Y009610D01*
X004953Y009452D02*
X000753Y009452D01*
X000753Y009293D02*
X004953Y009293D01*
X005044Y009135D02*
X000753Y009135D01*
X000753Y008976D02*
X001994Y008976D01*
X001988Y008953D02*
X001988Y008709D01*
X002445Y008709D01*
X002445Y008593D01*
X002561Y008593D01*
X002561Y008176D01*
X002844Y008176D01*
X002895Y008189D01*
X002941Y008216D01*
X002978Y008253D01*
X003005Y008298D01*
X003018Y008349D01*
X003018Y008593D01*
X002561Y008593D01*
X002561Y008709D01*
X002445Y008709D01*
X002445Y009127D01*
X002162Y009127D01*
X002111Y009113D01*
X002065Y009087D01*
X002028Y009050D01*
X002002Y009004D01*
X001988Y008953D01*
X001988Y008818D02*
X000753Y008818D01*
X000753Y008659D02*
X002445Y008659D01*
X002445Y008593D02*
X001988Y008593D01*
X001988Y008349D01*
X002002Y008298D01*
X002028Y008253D01*
X002065Y008216D01*
X002111Y008189D01*
X002162Y008176D01*
X002445Y008176D01*
X002445Y008593D01*
X002445Y008501D02*
X002561Y008501D01*
X002561Y008659D02*
X003465Y008659D01*
X003465Y008652D02*
X003028Y008652D01*
X003028Y008428D01*
X003041Y008377D01*
X003068Y008332D01*
X003105Y008294D01*
X003150Y008268D01*
X003201Y008254D01*
X003465Y008254D01*
X003465Y008652D01*
X003541Y008652D01*
X003541Y008254D01*
X003805Y008254D01*
X003856Y008268D01*
X003902Y008294D01*
X003939Y008332D01*
X003965Y008377D01*
X003979Y008428D01*
X003979Y008652D01*
X003541Y008652D01*
X003541Y008729D01*
X003465Y008729D01*
X003465Y009127D01*
X003201Y009127D01*
X003150Y009113D01*
X003105Y009087D01*
X003068Y009050D01*
X003041Y009004D01*
X003028Y008953D01*
X003028Y008729D01*
X003465Y008729D01*
X003465Y008652D01*
X003541Y008659D02*
X005520Y008659D01*
X005361Y008818D02*
X003979Y008818D01*
X003979Y008729D02*
X003979Y008953D01*
X003965Y009004D01*
X003939Y009050D01*
X003902Y009087D01*
X003856Y009113D01*
X003805Y009127D01*
X003541Y009127D01*
X003541Y008729D01*
X003979Y008729D01*
X003979Y008501D02*
X004430Y008501D01*
X004443Y008523D02*
X004417Y008477D01*
X004403Y008426D01*
X004403Y008100D01*
X004753Y008100D01*
X004403Y008100D01*
X004403Y007774D01*
X004417Y007723D01*
X004443Y007677D01*
X004480Y007640D01*
X004526Y007614D01*
X004577Y007600D01*
X004753Y007600D01*
X004753Y008100D01*
X004753Y008100D01*
X004753Y008600D01*
X004577Y008600D01*
X004526Y008586D01*
X004480Y008560D01*
X004443Y008523D01*
X004403Y008342D02*
X003945Y008342D01*
X003541Y008342D02*
X003465Y008342D01*
X003465Y008501D02*
X003541Y008501D01*
X003062Y008342D02*
X003016Y008342D01*
X003018Y008501D02*
X003028Y008501D01*
X003018Y008709D02*
X002561Y008709D01*
X002561Y009127D01*
X002844Y009127D01*
X002895Y009113D01*
X002941Y009087D01*
X002978Y009050D01*
X003005Y009004D01*
X003018Y008953D01*
X003018Y008709D01*
X003018Y008818D02*
X003028Y008818D01*
X003012Y008976D02*
X003034Y008976D01*
X003465Y008976D02*
X003541Y008976D01*
X003541Y008818D02*
X003465Y008818D01*
X003973Y008976D02*
X005203Y008976D01*
X004980Y008586D02*
X004930Y008600D01*
X004753Y008600D01*
X004753Y008100D01*
X004753Y008100D01*
X004753Y008100D01*
X004753Y007600D01*
X004930Y007600D01*
X004980Y007614D01*
X005026Y007640D01*
X005063Y007677D01*
X005090Y007723D01*
X005103Y007774D01*
X005103Y008100D01*
X005103Y008426D01*
X005090Y008477D01*
X005063Y008523D01*
X005026Y008560D01*
X004980Y008586D01*
X005076Y008501D02*
X005921Y008501D01*
X005821Y008342D02*
X005103Y008342D01*
X005103Y008184D02*
X005662Y008184D01*
X005504Y008025D02*
X005103Y008025D01*
X005103Y008100D02*
X004753Y008100D01*
X005103Y008100D01*
X004753Y008100D02*
X004753Y008100D01*
X004753Y008025D02*
X004753Y008025D01*
X004753Y007867D02*
X004753Y007867D01*
X004753Y007708D02*
X004753Y007708D01*
X005081Y007708D02*
X005293Y007708D01*
X005293Y007550D02*
X003979Y007550D01*
X003979Y007708D02*
X004425Y007708D01*
X004403Y007867D02*
X003941Y007867D01*
X003979Y007829D02*
X003862Y007946D01*
X003145Y007946D01*
X003028Y007829D01*
X003028Y007190D01*
X003145Y007073D01*
X003203Y007073D01*
X003203Y007040D01*
X003249Y006930D01*
X003289Y006890D01*
X003187Y006787D01*
X003187Y005913D01*
X003304Y005796D01*
X004100Y005796D01*
X004217Y005913D01*
X004217Y006787D01*
X004100Y006904D01*
X004002Y006904D01*
X004002Y006961D01*
X003956Y007071D01*
X003908Y007120D01*
X003979Y007190D01*
X003979Y007829D01*
X004403Y008025D02*
X000753Y008025D01*
X000753Y007867D02*
X001988Y007867D01*
X001988Y007907D02*
X001988Y007210D01*
X001949Y007210D01*
X001826Y007333D01*
X001617Y007420D01*
X001390Y007420D01*
X001180Y007333D01*
X001020Y007173D01*
X000933Y006963D01*
X000933Y006737D01*
X001020Y006527D01*
X001180Y006367D01*
X001225Y006348D01*
X001204Y006338D01*
X001132Y006285D01*
X001068Y006221D01*
X001016Y006149D01*
X000975Y006069D01*
X000947Y005983D01*
X000933Y005895D01*
X000933Y005870D01*
X001483Y005870D01*
X001483Y005830D01*
X000933Y005830D01*
X000933Y005805D01*
X000947Y005717D01*
X000975Y005631D01*
X001016Y005551D01*
X001068Y005479D01*
X001132Y005415D01*
X001204Y005362D01*
X001225Y005352D01*
X001180Y005333D01*
X001020Y005173D01*
X000933Y004963D01*
X000933Y004737D01*
X001020Y004527D01*
X001127Y004420D01*
X001050Y004420D01*
X000933Y004303D01*
X000933Y003397D01*
X001050Y003280D01*
X001956Y003280D01*
X002073Y003397D01*
X002073Y004303D01*
X001956Y004420D01*
X001879Y004420D01*
X001986Y004527D01*
X002073Y004737D01*
X002073Y004963D01*
X001986Y005173D01*
X001826Y005333D01*
X001781Y005352D01*
X001802Y005362D01*
X001875Y005415D01*
X001938Y005479D01*
X001991Y005551D01*
X002031Y005631D01*
X002059Y005717D01*
X002073Y005805D01*
X002073Y005830D01*
X001523Y005830D01*
X001523Y005870D01*
X002073Y005870D01*
X002073Y005895D01*
X002059Y005983D01*
X002031Y006069D01*
X001991Y006149D01*
X001938Y006221D01*
X001875Y006285D01*
X001802Y006338D01*
X001781Y006348D01*
X001826Y006367D01*
X001949Y006490D01*
X002104Y006490D01*
X002393Y006201D01*
X002393Y004778D01*
X002448Y004646D01*
X002698Y004396D01*
X002799Y004295D01*
X002903Y004252D01*
X002903Y004047D01*
X003020Y003930D01*
X003666Y003930D01*
X003783Y004047D01*
X003783Y005093D01*
X003666Y005210D01*
X003113Y005210D01*
X003113Y006422D01*
X003058Y006554D01*
X002957Y006655D01*
X002762Y006850D01*
X002808Y006896D01*
X002863Y007028D01*
X002863Y007073D01*
X002901Y007073D01*
X003018Y007190D01*
X003018Y007907D01*
X002901Y008024D01*
X002105Y008024D01*
X001988Y007907D01*
X001988Y007708D02*
X000753Y007708D01*
X000753Y007550D02*
X001988Y007550D01*
X001988Y007391D02*
X001687Y007391D01*
X001927Y007233D02*
X001988Y007233D01*
X001320Y007391D02*
X000753Y007391D01*
X000753Y007233D02*
X001080Y007233D01*
X000979Y007074D02*
X000753Y007074D01*
X000753Y006916D02*
X000933Y006916D01*
X000933Y006757D02*
X000753Y006757D01*
X000753Y006599D02*
X000990Y006599D01*
X001107Y006440D02*
X000753Y006440D01*
X000753Y006282D02*
X001129Y006282D01*
X001003Y006123D02*
X000753Y006123D01*
X000753Y005965D02*
X000944Y005965D01*
X000933Y005806D02*
X000753Y005806D01*
X000753Y005648D02*
X000970Y005648D01*
X001061Y005489D02*
X000753Y005489D01*
X000753Y005331D02*
X001178Y005331D01*
X001020Y005172D02*
X000753Y005172D01*
X000753Y005014D02*
X000954Y005014D01*
X000933Y004855D02*
X000753Y004855D01*
X000753Y004697D02*
X000950Y004697D01*
X001015Y004538D02*
X000753Y004538D01*
X000753Y004380D02*
X001010Y004380D01*
X000933Y004221D02*
X000753Y004221D01*
X000753Y004063D02*
X000933Y004063D01*
X000933Y003904D02*
X000753Y003904D01*
X000753Y003746D02*
X000933Y003746D01*
X000933Y003587D02*
X000753Y003587D01*
X000753Y003429D02*
X000933Y003429D01*
X000753Y003270D02*
X009693Y003270D01*
X009693Y003429D02*
X007232Y003429D01*
X006774Y003429D02*
X002073Y003429D01*
X002073Y003587D02*
X006616Y003587D01*
X006543Y003746D02*
X002073Y003746D01*
X002073Y003904D02*
X006525Y003904D01*
X006163Y004063D02*
X005592Y004063D01*
X005603Y004221D02*
X005958Y004221D01*
X005799Y004380D02*
X005603Y004380D01*
X005704Y004538D02*
X005203Y004538D01*
X005123Y004538D02*
X004693Y004538D01*
X004693Y004380D02*
X004723Y004380D01*
X004723Y004221D02*
X004693Y004221D01*
X004693Y004063D02*
X004734Y004063D01*
X005123Y004063D02*
X005203Y004063D01*
X005203Y004221D02*
X005123Y004221D01*
X005123Y004380D02*
X005203Y004380D01*
X005603Y004697D02*
X005703Y004697D01*
X005703Y004855D02*
X005603Y004855D01*
X005603Y005014D02*
X005665Y005014D01*
X006173Y005354D02*
X006173Y005354D01*
X006197Y005331D02*
X006622Y005331D01*
X006543Y005489D02*
X006038Y005489D01*
X006008Y005520D02*
X006008Y005520D01*
X005819Y005648D02*
X006543Y005648D01*
X006396Y005806D02*
X006110Y005806D01*
X006217Y005965D02*
X006289Y005965D01*
X006289Y006123D02*
X006217Y006123D01*
X006217Y006282D02*
X006289Y006282D01*
X006289Y006440D02*
X006217Y006440D01*
X006217Y006599D02*
X006289Y006599D01*
X006289Y006757D02*
X006217Y006757D01*
X006504Y006916D02*
X004002Y006916D01*
X003953Y007074D02*
X006504Y007074D01*
X006504Y007233D02*
X006036Y007233D01*
X006195Y007391D02*
X006504Y007391D01*
X006504Y007550D02*
X006213Y007550D01*
X005470Y007233D02*
X003979Y007233D01*
X003979Y007391D02*
X005312Y007391D01*
X005369Y007867D02*
X005103Y007867D01*
X004753Y008184D02*
X004753Y008184D01*
X004753Y008342D02*
X004753Y008342D01*
X004753Y008501D02*
X004753Y008501D01*
X004403Y008184D02*
X002874Y008184D01*
X002561Y008184D02*
X002445Y008184D01*
X002445Y008342D02*
X002561Y008342D01*
X002132Y008184D02*
X000753Y008184D01*
X000753Y008342D02*
X001990Y008342D01*
X001988Y008501D02*
X000753Y008501D01*
X002445Y008818D02*
X002561Y008818D01*
X002561Y008976D02*
X002445Y008976D01*
X003018Y007867D02*
X003066Y007867D01*
X003028Y007708D02*
X003018Y007708D01*
X003018Y007550D02*
X003028Y007550D01*
X003018Y007391D02*
X003028Y007391D01*
X003018Y007233D02*
X003028Y007233D01*
X003144Y007074D02*
X002902Y007074D01*
X002816Y006916D02*
X003263Y006916D01*
X003187Y006757D02*
X002855Y006757D01*
X003014Y006599D02*
X003187Y006599D01*
X003187Y006440D02*
X003106Y006440D01*
X003113Y006282D02*
X003187Y006282D01*
X003187Y006123D02*
X003113Y006123D01*
X003113Y005965D02*
X003187Y005965D01*
X003113Y005806D02*
X003294Y005806D01*
X003113Y005648D02*
X004438Y005648D01*
X004396Y005806D02*
X004110Y005806D01*
X004217Y005965D02*
X004289Y005965D01*
X004289Y006123D02*
X004217Y006123D01*
X004217Y006282D02*
X004289Y006282D01*
X004289Y006440D02*
X004217Y006440D01*
X004217Y006599D02*
X004289Y006599D01*
X004289Y006757D02*
X004217Y006757D01*
X005213Y005806D02*
X005294Y005806D01*
X004723Y005014D02*
X004693Y005014D01*
X004693Y004855D02*
X004723Y004855D01*
X004723Y004697D02*
X004693Y004697D01*
X003813Y004697D02*
X003783Y004697D01*
X003783Y004855D02*
X003813Y004855D01*
X003813Y005014D02*
X003783Y005014D01*
X003704Y005172D02*
X003892Y005172D01*
X004059Y005331D02*
X003113Y005331D01*
X003113Y005489D02*
X004218Y005489D01*
X003813Y004538D02*
X003783Y004538D01*
X003783Y004380D02*
X003813Y004380D01*
X003813Y004221D02*
X003783Y004221D01*
X003783Y004063D02*
X003813Y004063D01*
X002903Y004063D02*
X002073Y004063D01*
X002073Y004221D02*
X002903Y004221D01*
X002715Y004380D02*
X001997Y004380D01*
X001991Y004538D02*
X002556Y004538D01*
X002427Y004697D02*
X002057Y004697D01*
X002073Y004855D02*
X002393Y004855D01*
X002393Y005014D02*
X002052Y005014D01*
X001987Y005172D02*
X002393Y005172D01*
X002393Y005331D02*
X001829Y005331D01*
X001945Y005489D02*
X002393Y005489D01*
X002393Y005648D02*
X002037Y005648D01*
X002073Y005806D02*
X002393Y005806D01*
X002393Y005965D02*
X002062Y005965D01*
X002004Y006123D02*
X002393Y006123D01*
X002313Y006282D02*
X001878Y006282D01*
X001899Y006440D02*
X002154Y006440D01*
X006298Y005172D02*
X006781Y005172D01*
X007226Y005172D02*
X008091Y005172D01*
X008091Y005014D02*
X006303Y005014D01*
X006303Y004855D02*
X008091Y004855D01*
X008091Y005331D02*
X007384Y005331D01*
X008263Y005648D02*
X009046Y005648D01*
X009046Y005806D02*
X008263Y005806D01*
X008263Y005965D02*
X009046Y005965D01*
X009046Y006123D02*
X008263Y006123D01*
X008263Y006282D02*
X009046Y006282D01*
X009046Y006440D02*
X008263Y006440D01*
X008263Y006599D02*
X009046Y006599D01*
X009046Y006757D02*
X008263Y006757D01*
X008263Y006916D02*
X009046Y006916D01*
X009075Y007074D02*
X008263Y007074D01*
X008263Y007233D02*
X009211Y007233D01*
X009361Y007391D02*
X008263Y007391D01*
X008263Y007550D02*
X009361Y007550D01*
X009361Y007708D02*
X008263Y007708D01*
X008263Y007867D02*
X009361Y007867D01*
X009361Y008025D02*
X008263Y008025D01*
X009346Y008184D02*
X009346Y008184D01*
X009346Y008342D02*
X009346Y008342D01*
X009346Y008501D02*
X009346Y008501D01*
X009346Y008659D02*
X009346Y008659D01*
X009346Y008818D02*
X009346Y008818D01*
X009346Y008976D02*
X009346Y008976D01*
X009361Y009135D02*
X007143Y009135D01*
X006984Y009293D02*
X008307Y009293D01*
X008194Y008976D02*
X007301Y008976D01*
X007238Y009452D02*
X006826Y009452D01*
X006659Y009610D02*
X007238Y009610D01*
X007238Y009769D02*
X006603Y009769D01*
X006603Y009927D02*
X007238Y009927D01*
X007238Y010086D02*
X006603Y010086D01*
X006603Y010244D02*
X007325Y010244D01*
X007361Y010439D02*
X007315Y010466D01*
X007278Y010503D01*
X007252Y010548D01*
X007238Y010599D01*
X007238Y010843D01*
X007695Y010843D01*
X007811Y010843D01*
X007811Y010426D01*
X008094Y010426D01*
X008145Y010439D01*
X008191Y010466D01*
X008221Y010495D01*
X008239Y010463D01*
X008276Y010426D01*
X008322Y010400D01*
X008373Y010386D01*
X008676Y010386D01*
X008676Y010824D01*
X008831Y010824D01*
X008831Y010979D01*
X008676Y010979D01*
X008676Y011416D01*
X008373Y011416D01*
X008322Y011403D01*
X008276Y011376D01*
X008239Y011339D01*
X008221Y011307D01*
X008191Y011337D01*
X008145Y011363D01*
X008094Y011377D01*
X007811Y011377D01*
X007811Y010959D01*
X007695Y010959D01*
X007695Y010843D01*
X007695Y010426D01*
X007412Y010426D01*
X007361Y010439D01*
X007248Y010561D02*
X006525Y010561D01*
X006603Y010403D02*
X008317Y010403D01*
X008246Y010244D02*
X008181Y010244D01*
X007811Y010561D02*
X007695Y010561D01*
X007695Y010720D02*
X007811Y010720D01*
X007811Y010843D02*
X007811Y010959D01*
X008268Y010959D01*
X008268Y010979D01*
X008676Y010979D01*
X008676Y010824D01*
X008268Y010824D01*
X008268Y010843D01*
X007811Y010843D01*
X007811Y010878D02*
X008676Y010878D01*
X008831Y010878D02*
X009453Y010878D01*
X009308Y010824D02*
X008831Y010824D01*
X008831Y010386D01*
X009134Y010386D01*
X009185Y010400D01*
X009230Y010426D01*
X009268Y010463D01*
X009294Y010509D01*
X009308Y010560D01*
X009308Y010824D01*
X009308Y010720D02*
X009453Y010720D01*
X009453Y010561D02*
X009308Y010561D01*
X009405Y010403D02*
X009189Y010403D01*
X009260Y010244D02*
X009293Y010244D01*
X008831Y010403D02*
X008676Y010403D01*
X008676Y010561D02*
X008831Y010561D01*
X008831Y010720D02*
X008676Y010720D01*
X008831Y010979D02*
X009308Y010979D01*
X009308Y011242D01*
X009294Y011293D01*
X009268Y011339D01*
X009230Y011376D01*
X009185Y011403D01*
X009134Y011416D01*
X008831Y011416D01*
X008831Y010979D01*
X008831Y011037D02*
X008676Y011037D01*
X008676Y011195D02*
X008831Y011195D01*
X008831Y011354D02*
X008676Y011354D01*
X008253Y011354D02*
X008162Y011354D01*
X007811Y011354D02*
X007695Y011354D01*
X007695Y011377D02*
X007412Y011377D01*
X007361Y011363D01*
X007315Y011337D01*
X007278Y011300D01*
X007252Y011254D01*
X007238Y011203D01*
X007238Y010959D01*
X007695Y010959D01*
X007695Y011377D01*
X007344Y011354D02*
X006053Y011354D01*
X006053Y011195D02*
X007238Y011195D01*
X007238Y011037D02*
X006053Y011037D01*
X006053Y010878D02*
X007695Y010878D01*
X007695Y011037D02*
X007811Y011037D01*
X007811Y011195D02*
X007695Y011195D01*
X007238Y010720D02*
X006053Y010720D01*
X006053Y011512D02*
X009453Y011512D01*
X009453Y011671D02*
X006053Y011671D01*
X006053Y011829D02*
X009374Y011829D01*
X009293Y011988D02*
X006197Y011988D01*
X006286Y012146D02*
X009293Y012146D01*
X010041Y012463D02*
X010560Y012463D01*
X010433Y012305D02*
X010199Y012305D01*
X010213Y012146D02*
X010433Y012146D01*
X010433Y011988D02*
X010213Y011988D01*
X010133Y011829D02*
X010468Y011829D01*
X010627Y011671D02*
X010053Y011671D01*
X010053Y011512D02*
X010609Y011512D01*
X010451Y011354D02*
X010053Y011354D01*
X010053Y011195D02*
X010433Y011195D01*
X010433Y011037D02*
X010053Y011037D01*
X010053Y010878D02*
X010433Y010878D01*
X010578Y010720D02*
X010053Y010720D01*
X010053Y010561D02*
X010736Y010561D01*
X010983Y010561D02*
X011023Y010561D01*
X011023Y010720D02*
X010983Y010720D01*
X010983Y010878D02*
X011023Y010878D01*
X011023Y011037D02*
X010983Y011037D01*
X011429Y010720D02*
X011578Y010720D01*
X011290Y010561D02*
X011270Y010561D01*
X011131Y010403D02*
X010101Y010403D01*
X009453Y011037D02*
X009308Y011037D01*
X009308Y011195D02*
X009453Y011195D01*
X009453Y011354D02*
X009253Y011354D01*
X010719Y012622D02*
X006258Y012622D01*
X006129Y012780D02*
X019632Y012780D01*
X019630Y012622D02*
X013505Y012622D01*
X013573Y012463D02*
X019630Y012463D01*
X019680Y012305D02*
X013573Y012305D01*
X013573Y012146D02*
X019746Y012146D01*
X019880Y011988D02*
X013573Y011988D01*
X013573Y011829D02*
X020081Y011829D01*
X019825Y010561D02*
X020408Y010561D01*
X021098Y010561D02*
X021503Y010561D01*
X021503Y010403D02*
X021245Y010403D01*
X021311Y010244D02*
X021503Y010244D01*
X021503Y010086D02*
X021323Y010086D01*
X021299Y009927D02*
X021503Y009927D01*
X021503Y009769D02*
X021228Y009769D01*
X021060Y009610D02*
X021503Y009610D01*
X021503Y009452D02*
X021202Y009452D01*
X021290Y009293D02*
X021503Y009293D01*
X021503Y009135D02*
X021323Y009135D01*
X021311Y008976D02*
X021503Y008976D01*
X021503Y008818D02*
X021249Y008818D01*
X021116Y008659D02*
X021503Y008659D01*
X021503Y008501D02*
X019430Y008501D01*
X019833Y008659D02*
X020390Y008659D01*
X020257Y008818D02*
X019833Y008818D01*
X019833Y008976D02*
X020196Y008976D01*
X020183Y009135D02*
X019821Y009135D01*
X019833Y009293D02*
X020217Y009293D01*
X020304Y009452D02*
X019833Y009452D01*
X019796Y009610D02*
X020447Y009610D01*
X020733Y008976D02*
X020773Y008976D01*
X020773Y008818D02*
X020733Y008818D01*
X020733Y008659D02*
X020773Y008659D01*
X021503Y008342D02*
X014169Y008342D01*
X014011Y008184D02*
X021503Y008184D01*
X020511Y007867D02*
X019770Y007867D01*
X018833Y008659D02*
X017673Y008659D01*
X017673Y008818D02*
X018833Y008818D01*
X018833Y008976D02*
X017673Y008976D01*
X017649Y009135D02*
X018846Y009135D01*
X018833Y009293D02*
X017673Y009293D01*
X017673Y009350D02*
X017673Y009496D01*
X017660Y009547D01*
X017633Y009593D01*
X017626Y009600D01*
X017633Y009607D01*
X017660Y009653D01*
X017673Y009704D01*
X017673Y009850D01*
X017173Y009850D01*
X017173Y009850D01*
X017173Y009350D01*
X017173Y009350D01*
X017673Y009350D01*
X017673Y009452D02*
X018833Y009452D01*
X018870Y009610D02*
X017635Y009610D01*
X017673Y009769D02*
X018833Y009769D01*
X018833Y009927D02*
X017673Y009927D01*
X017673Y009996D02*
X017673Y009850D01*
X017173Y009850D01*
X017173Y010350D01*
X017173Y010350D01*
X017173Y010350D01*
X017173Y010670D01*
X017500Y010670D01*
X017550Y010656D01*
X017596Y010630D01*
X017633Y010593D01*
X017660Y010547D01*
X017673Y010496D01*
X017673Y010350D01*
X017173Y010350D01*
X017673Y010350D01*
X017673Y010204D01*
X017660Y010153D01*
X017633Y010107D01*
X017626Y010100D01*
X017633Y010093D01*
X017660Y010047D01*
X017673Y009996D01*
X017637Y010086D02*
X018866Y010086D01*
X018833Y010244D02*
X017673Y010244D01*
X017673Y010403D02*
X018833Y010403D01*
X018841Y010561D02*
X017652Y010561D01*
X017173Y010561D02*
X017173Y010561D01*
X017173Y010403D02*
X017173Y010403D01*
X017173Y010350D02*
X017173Y010350D01*
X017173Y010244D02*
X017173Y010244D01*
X017173Y010086D02*
X017173Y010086D01*
X017173Y009927D02*
X017173Y009927D01*
X017173Y009850D02*
X017173Y009850D01*
X017173Y009769D02*
X017173Y009769D01*
X017173Y009610D02*
X017173Y009610D01*
X017173Y009452D02*
X017173Y009452D01*
X017173Y009350D02*
X017173Y009350D01*
X015699Y008659D02*
X015558Y008659D01*
X015490Y007867D02*
X015766Y007867D01*
X015699Y007708D02*
X015558Y007708D01*
X015558Y007550D02*
X015699Y007550D01*
X015558Y007391D02*
X016176Y007391D01*
X016176Y007324D02*
X015699Y007324D01*
X015699Y007060D01*
X015713Y007009D01*
X015739Y006963D01*
X015776Y006926D01*
X015822Y006900D01*
X015873Y006886D01*
X016176Y006886D01*
X016176Y007324D01*
X016176Y007233D02*
X016331Y007233D01*
X016331Y007074D02*
X016176Y007074D01*
X016176Y006916D02*
X016331Y006916D01*
X015795Y006916D02*
X015470Y006916D01*
X015497Y006757D02*
X015759Y006757D01*
X015699Y007074D02*
X015558Y007074D01*
X015558Y007233D02*
X015699Y007233D01*
X016176Y007550D02*
X016331Y007550D01*
X016331Y007708D02*
X016176Y007708D01*
X016176Y007867D02*
X016331Y007867D01*
X017173Y007867D02*
X017173Y007867D01*
X017173Y007708D02*
X017173Y007708D01*
X017173Y007600D02*
X017173Y007600D01*
X017173Y007550D02*
X017173Y007550D01*
X017173Y007391D02*
X017173Y007391D01*
X017173Y007233D02*
X017173Y007233D01*
X017173Y007100D02*
X017173Y007100D01*
X017173Y007074D02*
X017173Y007074D01*
X017173Y006916D02*
X017173Y006916D01*
X017173Y006757D02*
X017173Y006757D01*
X017173Y006600D02*
X017173Y006600D01*
X015794Y005806D02*
X015463Y005806D01*
X015558Y005965D02*
X015699Y005965D01*
X013531Y005648D02*
X013130Y005648D01*
X013110Y005806D02*
X013373Y005806D01*
X013214Y005965D02*
X013213Y005965D01*
X012370Y005331D02*
X012303Y005331D01*
X012439Y005172D02*
X012567Y005172D01*
X012567Y005014D02*
X012439Y005014D01*
X012439Y004855D02*
X012676Y004855D01*
X012567Y004697D02*
X012422Y004697D01*
X012387Y004538D02*
X012567Y004538D01*
X012567Y004380D02*
X012439Y004380D01*
X012439Y004221D02*
X012601Y004221D01*
X012703Y004063D02*
X012439Y004063D01*
X012338Y003904D02*
X012703Y003904D01*
X012528Y003746D02*
X012479Y003746D01*
X012479Y003587D02*
X012528Y003587D01*
X012528Y003429D02*
X012479Y003429D01*
X012479Y003270D02*
X012528Y003270D01*
X012538Y003112D02*
X012469Y003112D01*
X012356Y002682D02*
X012305Y002696D01*
X012041Y002696D01*
X012041Y002298D01*
X011965Y002298D01*
X011965Y002696D01*
X011701Y002696D01*
X011650Y002682D01*
X011605Y002656D01*
X011568Y002618D01*
X011541Y002573D01*
X011528Y002522D01*
X011528Y002298D01*
X011965Y002298D01*
X011965Y002221D01*
X012041Y002221D01*
X012041Y001823D01*
X012305Y001823D01*
X012356Y001837D01*
X012402Y001863D01*
X012439Y001900D01*
X012465Y001946D01*
X012479Y001997D01*
X012479Y002221D01*
X012041Y002221D01*
X012041Y002298D01*
X012479Y002298D01*
X012479Y002522D01*
X012465Y002573D01*
X012439Y002618D01*
X012402Y002656D01*
X012356Y002682D01*
X012421Y002636D02*
X012585Y002636D01*
X012528Y002478D02*
X012479Y002478D01*
X012479Y002319D02*
X012528Y002319D01*
X012528Y002221D02*
X012528Y001997D01*
X012541Y001946D01*
X012568Y001900D01*
X012605Y001863D01*
X012650Y001837D01*
X012701Y001823D01*
X012965Y001823D01*
X012965Y002221D01*
X012528Y002221D01*
X012528Y002161D02*
X012479Y002161D01*
X012479Y002002D02*
X012528Y002002D01*
X012639Y001844D02*
X012368Y001844D01*
X012041Y001844D02*
X011965Y001844D01*
X011965Y001823D02*
X011965Y002221D01*
X011528Y002221D01*
X011528Y001997D01*
X011541Y001946D01*
X011568Y001900D01*
X011605Y001863D01*
X011650Y001837D01*
X011701Y001823D01*
X011965Y001823D01*
X011639Y001844D02*
X005162Y001844D01*
X005162Y001685D02*
X019630Y001685D01*
X019630Y001527D02*
X005074Y001527D01*
X005045Y001497D02*
X005162Y001614D01*
X005162Y002646D01*
X005045Y002763D01*
X003462Y002763D01*
X003345Y002646D01*
X003345Y001614D01*
X003462Y001497D01*
X005045Y001497D01*
X005162Y002002D02*
X011528Y002002D01*
X011528Y002161D02*
X005162Y002161D01*
X005162Y002319D02*
X011528Y002319D01*
X011528Y002478D02*
X005162Y002478D01*
X005162Y002636D02*
X011585Y002636D01*
X011965Y002636D02*
X012041Y002636D01*
X012041Y002478D02*
X011965Y002478D01*
X011965Y002319D02*
X012041Y002319D01*
X012041Y002161D02*
X011965Y002161D01*
X011965Y002002D02*
X012041Y002002D01*
X012965Y002002D02*
X013041Y002002D01*
X013041Y002161D02*
X012965Y002161D01*
X012965Y002319D02*
X013041Y002319D01*
X013041Y002478D02*
X012965Y002478D01*
X012965Y002636D02*
X013041Y002636D01*
X013479Y002319D02*
X019987Y002319D01*
X019828Y002161D02*
X013479Y002161D01*
X013479Y002002D02*
X019724Y002002D01*
X019658Y001844D02*
X013368Y001844D01*
X013041Y001844D02*
X012965Y001844D01*
X011538Y003112D02*
X011242Y003112D01*
X011313Y003270D02*
X011528Y003270D01*
X011528Y003429D02*
X011313Y003429D01*
X011313Y003587D02*
X011528Y003587D01*
X011528Y003746D02*
X011313Y003746D01*
X011313Y003904D02*
X011668Y003904D01*
X011567Y004063D02*
X011276Y004063D01*
X011262Y004221D02*
X011567Y004221D01*
X011567Y004380D02*
X011148Y004380D01*
X010989Y004538D02*
X011619Y004538D01*
X011584Y004697D02*
X010906Y004697D01*
X010916Y004855D02*
X011567Y004855D01*
X011567Y005014D02*
X010916Y005014D01*
X010916Y005172D02*
X011567Y005172D01*
X011703Y005331D02*
X010916Y005331D01*
X009991Y004697D02*
X009646Y004697D01*
X009661Y004710D02*
X009661Y005160D01*
X009661Y004710D01*
X009661Y004855D02*
X009661Y004855D01*
X009661Y005014D02*
X009661Y005014D01*
X009661Y005160D02*
X009661Y005160D01*
X009661Y005160D01*
X009661Y005610D01*
X009676Y005610D01*
X009676Y006848D01*
X009646Y006818D01*
X009646Y005610D01*
X009661Y005610D01*
X009661Y005160D01*
X009661Y005172D02*
X009661Y005172D01*
X009661Y005331D02*
X009661Y005331D01*
X009661Y005489D02*
X009661Y005489D01*
X009646Y005648D02*
X009676Y005648D01*
X009676Y005806D02*
X009646Y005806D01*
X009646Y005965D02*
X009676Y005965D01*
X009676Y006123D02*
X009646Y006123D01*
X009646Y006282D02*
X009676Y006282D01*
X009676Y006440D02*
X009646Y006440D01*
X009646Y006599D02*
X009676Y006599D01*
X009676Y006757D02*
X009646Y006757D01*
X009031Y005489D02*
X009031Y005489D01*
X009031Y005331D02*
X009031Y005331D01*
X009031Y005172D02*
X009031Y005172D01*
X009031Y005014D02*
X009031Y005014D01*
X009031Y004855D02*
X009031Y004855D01*
X009046Y004697D02*
X006331Y004697D01*
X006739Y004538D02*
X009017Y004538D01*
X008858Y004380D02*
X006898Y004380D01*
X006758Y004520D02*
X006758Y004520D01*
X007283Y004221D02*
X008700Y004221D01*
X009231Y003904D02*
X009693Y003904D01*
X009693Y003746D02*
X009073Y003746D01*
X008902Y003587D02*
X009693Y003587D01*
X009731Y004063D02*
X009390Y004063D01*
X009548Y004221D02*
X009745Y004221D01*
X009644Y004380D02*
X009858Y004380D01*
X009991Y004538D02*
X009646Y004538D01*
X010503Y004063D02*
X010503Y004063D01*
X010503Y003904D02*
X010503Y003904D01*
X010503Y003746D02*
X010503Y003746D01*
X010503Y003587D02*
X010503Y003587D01*
X010503Y003429D02*
X010503Y003429D01*
X010503Y003270D02*
X010503Y003270D01*
X010503Y003112D02*
X010503Y003112D01*
X009764Y003112D02*
X000753Y003112D01*
X000753Y002636D02*
X003345Y002636D01*
X003345Y002478D02*
X000753Y002478D01*
X000753Y002319D02*
X001237Y002319D01*
X001078Y002161D02*
X000753Y002161D01*
X000753Y002002D02*
X000974Y002002D01*
X000908Y001844D02*
X000753Y001844D01*
X000753Y001685D02*
X000880Y001685D01*
X000880Y001527D02*
X000758Y001527D01*
X000783Y001368D02*
X000904Y001368D01*
X000969Y001210D02*
X000834Y001210D01*
X000918Y001051D02*
X001067Y001051D01*
X002281Y000893D02*
X019975Y000893D01*
X019817Y001051D02*
X002440Y001051D01*
X002537Y001210D02*
X019719Y001210D01*
X019654Y001368D02*
X002603Y001368D01*
X002627Y001527D02*
X003432Y001527D01*
X003345Y001685D02*
X002627Y001685D01*
X002598Y001844D02*
X003345Y001844D01*
X003345Y002002D02*
X002532Y002002D01*
X002428Y002161D02*
X003345Y002161D01*
X003345Y002319D02*
X002270Y002319D01*
X009200Y009293D02*
X009361Y009293D01*
X013553Y009293D02*
X013703Y009293D01*
X013703Y009135D02*
X013553Y009135D01*
X013553Y008976D02*
X013703Y008976D01*
X013703Y008818D02*
X013553Y008818D01*
X013553Y008659D02*
X013638Y008659D01*
X013703Y009452D02*
X013553Y009452D01*
X013553Y009610D02*
X013703Y009610D01*
X013703Y009769D02*
X013553Y009769D01*
X013546Y009927D02*
X013710Y009927D01*
X011560Y012463D02*
X011446Y012463D01*
X011288Y012622D02*
X011719Y012622D01*
X012288Y012622D02*
X012502Y012622D01*
X005377Y012780D02*
X005129Y012780D01*
X004377Y012780D02*
X004129Y012780D01*
X004194Y011988D02*
X004310Y011988D01*
X017173Y003904D02*
X017173Y003904D01*
X017173Y003850D02*
X017173Y003850D01*
X020733Y005965D02*
X020773Y005965D01*
X020773Y006123D02*
X020733Y006123D01*
X020733Y006282D02*
X020773Y006282D01*
X021174Y005965D02*
X021503Y005965D01*
X021503Y006123D02*
X021277Y006123D01*
X021319Y006282D02*
X021503Y006282D01*
X021503Y006440D02*
X021316Y006440D01*
X021266Y006599D02*
X021503Y006599D01*
X021503Y006757D02*
X021152Y006757D01*
M02*
